<svg width="1280" height="720" viewBox="0 0 1280 720" fill="none" xmlns="http://www.w3.org/2000/svg">
<g clip-path="url(#clip0_9606_778)">
<rect width="1280" height="720" fill="white"/>
<g opacity="0.3">
<mask id="mask0_9606_778" style="mask-type:alpha" maskUnits="userSpaceOnUse" x="245" y="174" width="8" height="8">
<path d="M248.91 181.977C251.069 181.977 252.819 180.192 252.819 177.989C252.819 175.786 251.069 174 248.91 174C246.75 174 245 175.786 245 177.989C245 180.192 246.75 181.977 248.91 181.977Z" fill="url(#paint0_linear_9606_778)"/>
</mask>
<g mask="url(#mask0_9606_778)">
<path d="M248.91 181.977C251.069 181.977 252.819 180.192 252.819 177.989C252.819 175.786 251.069 174 248.91 174C246.75 174 245 175.786 245 177.989C245 180.192 246.75 181.977 248.91 181.977Z" fill="url(#paint1_linear_9606_778)"/>
</g>
<mask id="mask1_9606_778" style="mask-type:alpha" maskUnits="userSpaceOnUse" x="267" y="174" width="9" height="8">
<path d="M271.552 181.977C273.712 181.977 275.462 180.192 275.462 177.989C275.462 175.786 273.712 174 271.552 174C269.393 174 267.643 175.786 267.643 177.989C267.643 180.192 269.393 181.977 271.552 181.977Z" fill="url(#paint2_linear_9606_778)"/>
</mask>
<g mask="url(#mask1_9606_778)">
<path d="M271.553 181.977C273.712 181.977 275.462 180.192 275.462 177.989C275.462 175.786 273.712 174 271.553 174C269.393 174 267.643 175.786 267.643 177.989C267.643 180.192 269.393 181.977 271.553 181.977Z" fill="url(#paint3_linear_9606_778)"/>
</g>
<mask id="mask2_9606_778" style="mask-type:alpha" maskUnits="userSpaceOnUse" x="290" y="174" width="9" height="8">
<path d="M294.195 181.977C296.355 181.977 298.105 180.192 298.105 177.989C298.105 175.786 296.355 174 294.195 174C292.036 174 290.286 175.786 290.286 177.989C290.286 180.192 292.036 181.977 294.195 181.977Z" fill="url(#paint4_linear_9606_778)"/>
</mask>
<g mask="url(#mask2_9606_778)">
<path d="M294.196 181.977C296.355 181.977 298.106 180.192 298.106 177.989C298.106 175.786 296.355 174 294.196 174C292.037 174 290.286 175.786 290.286 177.989C290.286 180.192 292.037 181.977 294.196 181.977Z" fill="url(#paint5_linear_9606_778)"/>
</g>
<mask id="mask3_9606_778" style="mask-type:alpha" maskUnits="userSpaceOnUse" x="312" y="174" width="9" height="8">
<path d="M316.838 181.977C318.997 181.977 320.748 180.192 320.748 177.989C320.748 175.786 318.997 174 316.838 174C314.679 174 312.928 175.786 312.928 177.989C312.928 180.192 314.679 181.977 316.838 181.977Z" fill="url(#paint6_linear_9606_778)"/>
</mask>
<g mask="url(#mask3_9606_778)">
<path d="M316.839 181.977C318.998 181.977 320.748 180.192 320.748 177.989C320.748 175.786 318.998 174 316.839 174C314.679 174 312.929 175.786 312.929 177.989C312.929 180.192 314.679 181.977 316.839 181.977Z" fill="url(#paint7_linear_9606_778)"/>
</g>
<mask id="mask4_9606_778" style="mask-type:alpha" maskUnits="userSpaceOnUse" x="335" y="174" width="9" height="8">
<path d="M339.484 181.977C341.643 181.977 343.394 180.192 343.394 177.989C343.394 175.786 341.643 174 339.484 174C337.325 174 335.574 175.786 335.574 177.989C335.574 180.192 337.325 181.977 339.484 181.977Z" fill="url(#paint8_linear_9606_778)"/>
</mask>
<g mask="url(#mask4_9606_778)">
<path d="M339.484 181.977C341.643 181.977 343.393 180.192 343.393 177.989C343.393 175.786 341.643 174 339.484 174C337.324 174 335.574 175.786 335.574 177.989C335.574 180.192 337.324 181.977 339.484 181.977Z" fill="url(#paint9_linear_9606_778)"/>
</g>
<mask id="mask5_9606_778" style="mask-type:alpha" maskUnits="userSpaceOnUse" x="245" y="194" width="8" height="9">
<path d="M248.91 202.004C251.069 202.004 252.819 200.218 252.819 198.015C252.819 195.812 251.069 194.026 248.91 194.026C246.75 194.026 245 195.812 245 198.015C245 200.218 246.75 202.004 248.91 202.004Z" fill="url(#paint10_linear_9606_778)"/>
</mask>
<g mask="url(#mask5_9606_778)">
<path d="M248.91 202.004C251.069 202.004 252.819 200.218 252.819 198.015C252.819 195.812 251.069 194.026 248.91 194.026C246.75 194.026 245 195.812 245 198.015C245 200.218 246.75 202.004 248.91 202.004Z" fill="url(#paint11_linear_9606_778)"/>
</g>
<mask id="mask6_9606_778" style="mask-type:alpha" maskUnits="userSpaceOnUse" x="267" y="194" width="9" height="9">
<path d="M271.552 202.004C273.712 202.004 275.462 200.218 275.462 198.015C275.462 195.812 273.712 194.027 271.552 194.027C269.393 194.027 267.643 195.812 267.643 198.015C267.643 200.218 269.393 202.004 271.552 202.004Z" fill="url(#paint12_linear_9606_778)"/>
</mask>
<g mask="url(#mask6_9606_778)">
<path d="M271.553 202.004C273.712 202.004 275.462 200.218 275.462 198.015C275.462 195.812 273.712 194.026 271.553 194.026C269.393 194.026 267.643 195.812 267.643 198.015C267.643 200.218 269.393 202.004 271.553 202.004Z" fill="url(#paint13_linear_9606_778)"/>
</g>
<mask id="mask7_9606_778" style="mask-type:alpha" maskUnits="userSpaceOnUse" x="290" y="194" width="9" height="9">
<path d="M294.195 202.004C296.355 202.004 298.105 200.218 298.105 198.015C298.105 195.812 296.355 194.027 294.195 194.027C292.036 194.027 290.286 195.812 290.286 198.015C290.286 200.218 292.036 202.004 294.195 202.004Z" fill="url(#paint14_linear_9606_778)"/>
</mask>
<g mask="url(#mask7_9606_778)">
<path d="M294.196 202.004C296.355 202.004 298.106 200.218 298.106 198.015C298.106 195.812 296.355 194.026 294.196 194.026C292.037 194.026 290.286 195.812 290.286 198.015C290.286 200.218 292.037 202.004 294.196 202.004Z" fill="url(#paint15_linear_9606_778)"/>
</g>
<mask id="mask8_9606_778" style="mask-type:alpha" maskUnits="userSpaceOnUse" x="312" y="194" width="9" height="9">
<path d="M316.838 202.004C318.997 202.004 320.748 200.218 320.748 198.015C320.748 195.812 318.997 194.027 316.838 194.027C314.679 194.027 312.928 195.812 312.928 198.015C312.928 200.218 314.679 202.004 316.838 202.004Z" fill="url(#paint16_linear_9606_778)"/>
</mask>
<g mask="url(#mask8_9606_778)">
<path d="M316.839 202.004C318.998 202.004 320.748 200.218 320.748 198.015C320.748 195.812 318.998 194.026 316.839 194.026C314.679 194.026 312.929 195.812 312.929 198.015C312.929 200.218 314.679 202.004 316.839 202.004Z" fill="url(#paint17_linear_9606_778)"/>
</g>
<mask id="mask9_9606_778" style="mask-type:alpha" maskUnits="userSpaceOnUse" x="335" y="194" width="9" height="9">
<path d="M339.484 202.004C341.643 202.004 343.394 200.218 343.394 198.015C343.394 195.812 341.643 194.027 339.484 194.027C337.325 194.027 335.574 195.812 335.574 198.015C335.574 200.218 337.325 202.004 339.484 202.004Z" fill="url(#paint18_linear_9606_778)"/>
</mask>
<g mask="url(#mask9_9606_778)">
<path d="M339.484 202.004C341.643 202.004 343.393 200.218 343.393 198.015C343.393 195.812 341.643 194.026 339.484 194.026C337.324 194.026 335.574 195.812 335.574 198.015C335.574 200.218 337.324 202.004 339.484 202.004Z" fill="url(#paint19_linear_9606_778)"/>
</g>
<mask id="mask10_9606_778" style="mask-type:alpha" maskUnits="userSpaceOnUse" x="245" y="214" width="8" height="8">
<path d="M248.91 221.989C251.069 221.989 252.819 220.203 252.819 218C252.819 215.797 251.069 214.011 248.91 214.011C246.75 214.011 245 215.797 245 218C245 220.203 246.75 221.989 248.91 221.989Z" fill="url(#paint20_linear_9606_778)"/>
</mask>
<g mask="url(#mask10_9606_778)">
<path d="M248.91 221.989C251.069 221.989 252.819 220.203 252.819 218C252.819 215.797 251.069 214.011 248.91 214.011C246.75 214.011 245 215.797 245 218C245 220.203 246.75 221.989 248.91 221.989Z" fill="url(#paint21_linear_9606_778)"/>
</g>
<mask id="mask11_9606_778" style="mask-type:alpha" maskUnits="userSpaceOnUse" x="267" y="214" width="9" height="8">
<path d="M271.552 221.989C273.712 221.989 275.462 220.203 275.462 218C275.462 215.797 273.712 214.012 271.552 214.012C269.393 214.012 267.643 215.797 267.643 218C267.643 220.203 269.393 221.989 271.552 221.989Z" fill="url(#paint22_linear_9606_778)"/>
</mask>
<g mask="url(#mask11_9606_778)">
<path d="M271.553 221.989C273.712 221.989 275.462 220.203 275.462 218C275.462 215.797 273.712 214.011 271.553 214.011C269.393 214.011 267.643 215.797 267.643 218C267.643 220.203 269.393 221.989 271.553 221.989Z" fill="url(#paint23_linear_9606_778)"/>
</g>
<mask id="mask12_9606_778" style="mask-type:alpha" maskUnits="userSpaceOnUse" x="290" y="214" width="9" height="8">
<path d="M294.195 221.989C296.355 221.989 298.105 220.203 298.105 218C298.105 215.797 296.355 214.012 294.195 214.012C292.036 214.012 290.286 215.797 290.286 218C290.286 220.203 292.036 221.989 294.195 221.989Z" fill="url(#paint24_linear_9606_778)"/>
</mask>
<g mask="url(#mask12_9606_778)">
<path d="M294.196 221.989C296.355 221.989 298.106 220.203 298.106 218C298.106 215.797 296.355 214.011 294.196 214.011C292.037 214.011 290.286 215.797 290.286 218C290.286 220.203 292.037 221.989 294.196 221.989Z" fill="url(#paint25_linear_9606_778)"/>
</g>
<mask id="mask13_9606_778" style="mask-type:alpha" maskUnits="userSpaceOnUse" x="312" y="214" width="9" height="8">
<path d="M316.838 221.989C318.997 221.989 320.748 220.203 320.748 218C320.748 215.797 318.997 214.012 316.838 214.012C314.679 214.012 312.928 215.797 312.928 218C312.928 220.203 314.679 221.989 316.838 221.989Z" fill="url(#paint26_linear_9606_778)"/>
</mask>
<g mask="url(#mask13_9606_778)">
<path d="M316.839 221.989C318.998 221.989 320.748 220.203 320.748 218C320.748 215.797 318.998 214.011 316.839 214.011C314.679 214.011 312.929 215.797 312.929 218C312.929 220.203 314.679 221.989 316.839 221.989Z" fill="url(#paint27_linear_9606_778)"/>
</g>
<mask id="mask14_9606_778" style="mask-type:alpha" maskUnits="userSpaceOnUse" x="335" y="214" width="9" height="8">
<path d="M339.484 221.989C341.643 221.989 343.394 220.203 343.394 218C343.394 215.797 341.643 214.012 339.484 214.012C337.325 214.012 335.574 215.797 335.574 218C335.574 220.203 337.325 221.989 339.484 221.989Z" fill="url(#paint28_linear_9606_778)"/>
</mask>
<g mask="url(#mask14_9606_778)">
<path d="M339.484 221.989C341.643 221.989 343.393 220.203 343.393 218C343.393 215.797 341.643 214.011 339.484 214.011C337.324 214.011 335.574 215.797 335.574 218C335.574 220.203 337.324 221.989 339.484 221.989Z" fill="url(#paint29_linear_9606_778)"/>
</g>
<mask id="mask15_9606_778" style="mask-type:alpha" maskUnits="userSpaceOnUse" x="245" y="234" width="8" height="9">
<path d="M248.91 242.015C251.069 242.015 252.819 240.23 252.819 238.027C252.819 235.824 251.069 234.038 248.91 234.038C246.75 234.038 245 235.824 245 238.027C245 240.23 246.75 242.015 248.91 242.015Z" fill="url(#paint30_linear_9606_778)"/>
</mask>
<g mask="url(#mask15_9606_778)">
<path d="M248.91 242.015C251.069 242.015 252.819 240.229 252.819 238.027C252.819 235.824 251.069 234.038 248.91 234.038C246.75 234.038 245 235.824 245 238.027C245 240.229 246.75 242.015 248.91 242.015Z" fill="url(#paint31_linear_9606_778)"/>
</g>
<mask id="mask16_9606_778" style="mask-type:alpha" maskUnits="userSpaceOnUse" x="267" y="234" width="9" height="9">
<path d="M271.552 242.015C273.712 242.015 275.462 240.23 275.462 238.027C275.462 235.824 273.712 234.038 271.552 234.038C269.393 234.038 267.643 235.824 267.643 238.027C267.643 240.23 269.393 242.015 271.552 242.015Z" fill="url(#paint32_linear_9606_778)"/>
</mask>
<g mask="url(#mask16_9606_778)">
<path d="M271.553 242.015C273.712 242.015 275.462 240.229 275.462 238.027C275.462 235.824 273.712 234.038 271.553 234.038C269.393 234.038 267.643 235.824 267.643 238.027C267.643 240.229 269.393 242.015 271.553 242.015Z" fill="url(#paint33_linear_9606_778)"/>
</g>
<mask id="mask17_9606_778" style="mask-type:alpha" maskUnits="userSpaceOnUse" x="290" y="234" width="9" height="9">
<path d="M294.195 242.015C296.355 242.015 298.105 240.23 298.105 238.027C298.105 235.824 296.355 234.038 294.195 234.038C292.036 234.038 290.286 235.824 290.286 238.027C290.286 240.23 292.036 242.015 294.195 242.015Z" fill="url(#paint34_linear_9606_778)"/>
</mask>
<g mask="url(#mask17_9606_778)">
<path d="M294.196 242.015C296.355 242.015 298.106 240.229 298.106 238.027C298.106 235.824 296.355 234.038 294.196 234.038C292.037 234.038 290.286 235.824 290.286 238.027C290.286 240.229 292.037 242.015 294.196 242.015Z" fill="url(#paint35_linear_9606_778)"/>
</g>
<mask id="mask18_9606_778" style="mask-type:alpha" maskUnits="userSpaceOnUse" x="312" y="234" width="9" height="9">
<path d="M316.838 242.015C318.997 242.015 320.748 240.23 320.748 238.027C320.748 235.824 318.997 234.038 316.838 234.038C314.679 234.038 312.928 235.824 312.928 238.027C312.928 240.23 314.679 242.015 316.838 242.015Z" fill="url(#paint36_linear_9606_778)"/>
</mask>
<g mask="url(#mask18_9606_778)">
<path d="M316.839 242.015C318.998 242.015 320.748 240.229 320.748 238.027C320.748 235.824 318.998 234.038 316.839 234.038C314.679 234.038 312.929 235.824 312.929 238.027C312.929 240.229 314.679 242.015 316.839 242.015Z" fill="url(#paint37_linear_9606_778)"/>
</g>
<mask id="mask19_9606_778" style="mask-type:alpha" maskUnits="userSpaceOnUse" x="335" y="234" width="9" height="9">
<path d="M339.484 242.015C341.643 242.015 343.394 240.23 343.394 238.027C343.394 235.824 341.643 234.038 339.484 234.038C337.325 234.038 335.574 235.824 335.574 238.027C335.574 240.23 337.325 242.015 339.484 242.015Z" fill="url(#paint38_linear_9606_778)"/>
</mask>
<g mask="url(#mask19_9606_778)">
<path d="M339.484 242.015C341.643 242.015 343.393 240.229 343.393 238.027C343.393 235.824 341.643 234.038 339.484 234.038C337.324 234.038 335.574 235.824 335.574 238.027C335.574 240.229 337.324 242.015 339.484 242.015Z" fill="url(#paint39_linear_9606_778)"/>
</g>
<mask id="mask20_9606_778" style="mask-type:alpha" maskUnits="userSpaceOnUse" x="245" y="254" width="8" height="9">
<path d="M248.91 262.001C251.069 262.001 252.819 260.215 252.819 258.012C252.819 255.809 251.069 254.023 248.91 254.023C246.75 254.023 245 255.809 245 258.012C245 260.215 246.75 262.001 248.91 262.001Z" fill="url(#paint40_linear_9606_778)"/>
</mask>
<g mask="url(#mask20_9606_778)">
<path d="M248.91 262C251.069 262 252.819 260.214 252.819 258.012C252.819 255.809 251.069 254.023 248.91 254.023C246.75 254.023 245 255.809 245 258.012C245 260.214 246.75 262 248.91 262Z" fill="url(#paint41_linear_9606_778)"/>
</g>
<mask id="mask21_9606_778" style="mask-type:alpha" maskUnits="userSpaceOnUse" x="267" y="254" width="9" height="9">
<path d="M271.552 262.001C273.712 262.001 275.462 260.215 275.462 258.012C275.462 255.809 273.712 254.023 271.552 254.023C269.393 254.023 267.643 255.809 267.643 258.012C267.643 260.215 269.393 262.001 271.552 262.001Z" fill="url(#paint42_linear_9606_778)"/>
</mask>
<g mask="url(#mask21_9606_778)">
<path d="M271.553 262C273.712 262 275.462 260.214 275.462 258.012C275.462 255.809 273.712 254.023 271.553 254.023C269.393 254.023 267.643 255.809 267.643 258.012C267.643 260.214 269.393 262 271.553 262Z" fill="url(#paint43_linear_9606_778)"/>
</g>
<mask id="mask22_9606_778" style="mask-type:alpha" maskUnits="userSpaceOnUse" x="290" y="254" width="9" height="9">
<path d="M294.195 262.001C296.355 262.001 298.105 260.215 298.105 258.012C298.105 255.809 296.355 254.023 294.195 254.023C292.036 254.023 290.286 255.809 290.286 258.012C290.286 260.215 292.036 262.001 294.195 262.001Z" fill="url(#paint44_linear_9606_778)"/>
</mask>
<g mask="url(#mask22_9606_778)">
<path d="M294.196 262C296.355 262 298.106 260.214 298.106 258.012C298.106 255.809 296.355 254.023 294.196 254.023C292.037 254.023 290.286 255.809 290.286 258.012C290.286 260.214 292.037 262 294.196 262Z" fill="url(#paint45_linear_9606_778)"/>
</g>
<mask id="mask23_9606_778" style="mask-type:alpha" maskUnits="userSpaceOnUse" x="312" y="254" width="9" height="9">
<path d="M316.838 262.001C318.997 262.001 320.748 260.215 320.748 258.012C320.748 255.809 318.997 254.023 316.838 254.023C314.679 254.023 312.928 255.809 312.928 258.012C312.928 260.215 314.679 262.001 316.838 262.001Z" fill="url(#paint46_linear_9606_778)"/>
</mask>
<g mask="url(#mask23_9606_778)">
<path d="M316.839 262C318.998 262 320.748 260.214 320.748 258.012C320.748 255.809 318.998 254.023 316.839 254.023C314.679 254.023 312.929 255.809 312.929 258.012C312.929 260.214 314.679 262 316.839 262Z" fill="url(#paint47_linear_9606_778)"/>
</g>
<mask id="mask24_9606_778" style="mask-type:alpha" maskUnits="userSpaceOnUse" x="335" y="254" width="9" height="9">
<path d="M339.484 262.001C341.643 262.001 343.394 260.215 343.394 258.012C343.394 255.809 341.643 254.023 339.484 254.023C337.325 254.023 335.574 255.809 335.574 258.012C335.574 260.215 337.325 262.001 339.484 262.001Z" fill="url(#paint48_linear_9606_778)"/>
</mask>
<g mask="url(#mask24_9606_778)">
<path d="M339.484 262C341.643 262 343.393 260.214 343.393 258.012C343.393 255.809 341.643 254.023 339.484 254.023C337.324 254.023 335.574 255.809 335.574 258.012C335.574 260.214 337.324 262 339.484 262Z" fill="url(#paint49_linear_9606_778)"/>
</g>
</g>
<g opacity="0.3">
<mask id="mask25_9606_778" style="mask-type:alpha" maskUnits="userSpaceOnUse" x="336" y="272" width="8" height="8">
<path d="M339.91 279.977C342.069 279.977 343.819 278.192 343.819 275.989C343.819 273.786 342.069 272 339.91 272C337.75 272 336 273.786 336 275.989C336 278.192 337.75 279.977 339.91 279.977Z" fill="url(#paint50_linear_9606_778)"/>
</mask>
<g mask="url(#mask25_9606_778)">
<path d="M339.91 279.977C342.069 279.977 343.819 278.192 343.819 275.989C343.819 273.786 342.069 272 339.91 272C337.75 272 336 273.786 336 275.989C336 278.192 337.75 279.977 339.91 279.977Z" fill="url(#paint51_linear_9606_778)"/>
</g>
<mask id="mask26_9606_778" style="mask-type:alpha" maskUnits="userSpaceOnUse" x="358" y="272" width="9" height="8">
<path d="M362.552 279.977C364.712 279.977 366.462 278.192 366.462 275.989C366.462 273.786 364.712 272 362.552 272C360.393 272 358.643 273.786 358.643 275.989C358.643 278.192 360.393 279.977 362.552 279.977Z" fill="url(#paint52_linear_9606_778)"/>
</mask>
<g mask="url(#mask26_9606_778)">
<path d="M362.553 279.977C364.712 279.977 366.462 278.192 366.462 275.989C366.462 273.786 364.712 272 362.553 272C360.393 272 358.643 273.786 358.643 275.989C358.643 278.192 360.393 279.977 362.553 279.977Z" fill="url(#paint53_linear_9606_778)"/>
</g>
<mask id="mask27_9606_778" style="mask-type:alpha" maskUnits="userSpaceOnUse" x="381" y="272" width="9" height="8">
<path d="M385.195 279.977C387.355 279.977 389.105 278.192 389.105 275.989C389.105 273.786 387.355 272 385.195 272C383.036 272 381.286 273.786 381.286 275.989C381.286 278.192 383.036 279.977 385.195 279.977Z" fill="url(#paint54_linear_9606_778)"/>
</mask>
<g mask="url(#mask27_9606_778)">
<path d="M385.196 279.977C387.355 279.977 389.106 278.192 389.106 275.989C389.106 273.786 387.355 272 385.196 272C383.037 272 381.286 273.786 381.286 275.989C381.286 278.192 383.037 279.977 385.196 279.977Z" fill="url(#paint55_linear_9606_778)"/>
</g>
<mask id="mask28_9606_778" style="mask-type:alpha" maskUnits="userSpaceOnUse" x="403" y="272" width="9" height="8">
<path d="M407.838 279.977C409.997 279.977 411.748 278.192 411.748 275.989C411.748 273.786 409.997 272 407.838 272C405.679 272 403.928 273.786 403.928 275.989C403.928 278.192 405.679 279.977 407.838 279.977Z" fill="url(#paint56_linear_9606_778)"/>
</mask>
<g mask="url(#mask28_9606_778)">
<path d="M407.839 279.977C409.998 279.977 411.748 278.192 411.748 275.989C411.748 273.786 409.998 272 407.839 272C405.679 272 403.929 273.786 403.929 275.989C403.929 278.192 405.679 279.977 407.839 279.977Z" fill="url(#paint57_linear_9606_778)"/>
</g>
<mask id="mask29_9606_778" style="mask-type:alpha" maskUnits="userSpaceOnUse" x="426" y="272" width="9" height="8">
<path d="M430.484 279.977C432.643 279.977 434.394 278.192 434.394 275.989C434.394 273.786 432.643 272 430.484 272C428.325 272 426.574 273.786 426.574 275.989C426.574 278.192 428.325 279.977 430.484 279.977Z" fill="url(#paint58_linear_9606_778)"/>
</mask>
<g mask="url(#mask29_9606_778)">
<path d="M430.484 279.977C432.643 279.977 434.393 278.192 434.393 275.989C434.393 273.786 432.643 272 430.484 272C428.324 272 426.574 273.786 426.574 275.989C426.574 278.192 428.324 279.977 430.484 279.977Z" fill="url(#paint59_linear_9606_778)"/>
</g>
<mask id="mask30_9606_778" style="mask-type:alpha" maskUnits="userSpaceOnUse" x="336" y="292" width="8" height="9">
<path d="M339.91 300.004C342.069 300.004 343.819 298.218 343.819 296.015C343.819 293.812 342.069 292.026 339.91 292.026C337.75 292.026 336 293.812 336 296.015C336 298.218 337.75 300.004 339.91 300.004Z" fill="url(#paint60_linear_9606_778)"/>
</mask>
<g mask="url(#mask30_9606_778)">
<path d="M339.91 300.004C342.069 300.004 343.819 298.218 343.819 296.015C343.819 293.812 342.069 292.026 339.91 292.026C337.75 292.026 336 293.812 336 296.015C336 298.218 337.75 300.004 339.91 300.004Z" fill="url(#paint61_linear_9606_778)"/>
</g>
<mask id="mask31_9606_778" style="mask-type:alpha" maskUnits="userSpaceOnUse" x="358" y="292" width="9" height="9">
<path d="M362.552 300.004C364.712 300.004 366.462 298.218 366.462 296.015C366.462 293.812 364.712 292.026 362.552 292.026C360.393 292.026 358.643 293.812 358.643 296.015C358.643 298.218 360.393 300.004 362.552 300.004Z" fill="url(#paint62_linear_9606_778)"/>
</mask>
<g mask="url(#mask31_9606_778)">
<path d="M362.553 300.004C364.712 300.004 366.462 298.218 366.462 296.015C366.462 293.812 364.712 292.026 362.553 292.026C360.393 292.026 358.643 293.812 358.643 296.015C358.643 298.218 360.393 300.004 362.553 300.004Z" fill="url(#paint63_linear_9606_778)"/>
</g>
<mask id="mask32_9606_778" style="mask-type:alpha" maskUnits="userSpaceOnUse" x="381" y="292" width="9" height="9">
<path d="M385.195 300.004C387.355 300.004 389.105 298.218 389.105 296.015C389.105 293.812 387.355 292.026 385.195 292.026C383.036 292.026 381.286 293.812 381.286 296.015C381.286 298.218 383.036 300.004 385.195 300.004Z" fill="url(#paint64_linear_9606_778)"/>
</mask>
<g mask="url(#mask32_9606_778)">
<path d="M385.196 300.004C387.355 300.004 389.106 298.218 389.106 296.015C389.106 293.812 387.355 292.026 385.196 292.026C383.037 292.026 381.286 293.812 381.286 296.015C381.286 298.218 383.037 300.004 385.196 300.004Z" fill="url(#paint65_linear_9606_778)"/>
</g>
<mask id="mask33_9606_778" style="mask-type:alpha" maskUnits="userSpaceOnUse" x="403" y="292" width="9" height="9">
<path d="M407.838 300.004C409.997 300.004 411.748 298.218 411.748 296.015C411.748 293.812 409.997 292.026 407.838 292.026C405.679 292.026 403.928 293.812 403.928 296.015C403.928 298.218 405.679 300.004 407.838 300.004Z" fill="url(#paint66_linear_9606_778)"/>
</mask>
<g mask="url(#mask33_9606_778)">
<path d="M407.839 300.004C409.998 300.004 411.748 298.218 411.748 296.015C411.748 293.812 409.998 292.026 407.839 292.026C405.679 292.026 403.929 293.812 403.929 296.015C403.929 298.218 405.679 300.004 407.839 300.004Z" fill="url(#paint67_linear_9606_778)"/>
</g>
<mask id="mask34_9606_778" style="mask-type:alpha" maskUnits="userSpaceOnUse" x="426" y="292" width="9" height="9">
<path d="M430.484 300.004C432.643 300.004 434.394 298.218 434.394 296.015C434.394 293.812 432.643 292.026 430.484 292.026C428.325 292.026 426.574 293.812 426.574 296.015C426.574 298.218 428.325 300.004 430.484 300.004Z" fill="url(#paint68_linear_9606_778)"/>
</mask>
<g mask="url(#mask34_9606_778)">
<path d="M430.484 300.004C432.643 300.004 434.393 298.218 434.393 296.015C434.393 293.812 432.643 292.026 430.484 292.026C428.324 292.026 426.574 293.812 426.574 296.015C426.574 298.218 428.324 300.004 430.484 300.004Z" fill="url(#paint69_linear_9606_778)"/>
</g>
<mask id="mask35_9606_778" style="mask-type:alpha" maskUnits="userSpaceOnUse" x="336" y="312" width="8" height="8">
<path d="M339.91 319.989C342.069 319.989 343.819 318.203 343.819 316C343.819 313.797 342.069 312.011 339.91 312.011C337.75 312.011 336 313.797 336 316C336 318.203 337.75 319.989 339.91 319.989Z" fill="url(#paint70_linear_9606_778)"/>
</mask>
<g mask="url(#mask35_9606_778)">
<path d="M339.91 319.989C342.069 319.989 343.819 318.203 343.819 316C343.819 313.797 342.069 312.011 339.91 312.011C337.75 312.011 336 313.797 336 316C336 318.203 337.75 319.989 339.91 319.989Z" fill="url(#paint71_linear_9606_778)"/>
</g>
<mask id="mask36_9606_778" style="mask-type:alpha" maskUnits="userSpaceOnUse" x="358" y="312" width="9" height="8">
<path d="M362.552 319.989C364.712 319.989 366.462 318.203 366.462 316C366.462 313.797 364.712 312.012 362.552 312.012C360.393 312.012 358.643 313.797 358.643 316C358.643 318.203 360.393 319.989 362.552 319.989Z" fill="url(#paint72_linear_9606_778)"/>
</mask>
<g mask="url(#mask36_9606_778)">
<path d="M362.553 319.989C364.712 319.989 366.462 318.203 366.462 316C366.462 313.797 364.712 312.011 362.553 312.011C360.393 312.011 358.643 313.797 358.643 316C358.643 318.203 360.393 319.989 362.553 319.989Z" fill="url(#paint73_linear_9606_778)"/>
</g>
<mask id="mask37_9606_778" style="mask-type:alpha" maskUnits="userSpaceOnUse" x="381" y="312" width="9" height="8">
<path d="M385.195 319.989C387.355 319.989 389.105 318.203 389.105 316C389.105 313.797 387.355 312.012 385.195 312.012C383.036 312.012 381.286 313.797 381.286 316C381.286 318.203 383.036 319.989 385.195 319.989Z" fill="url(#paint74_linear_9606_778)"/>
</mask>
<g mask="url(#mask37_9606_778)">
<path d="M385.196 319.989C387.355 319.989 389.106 318.203 389.106 316C389.106 313.797 387.355 312.011 385.196 312.011C383.037 312.011 381.286 313.797 381.286 316C381.286 318.203 383.037 319.989 385.196 319.989Z" fill="url(#paint75_linear_9606_778)"/>
</g>
<mask id="mask38_9606_778" style="mask-type:alpha" maskUnits="userSpaceOnUse" x="403" y="312" width="9" height="8">
<path d="M407.838 319.989C409.997 319.989 411.748 318.203 411.748 316C411.748 313.797 409.997 312.012 407.838 312.012C405.679 312.012 403.928 313.797 403.928 316C403.928 318.203 405.679 319.989 407.838 319.989Z" fill="url(#paint76_linear_9606_778)"/>
</mask>
<g mask="url(#mask38_9606_778)">
<path d="M407.839 319.989C409.998 319.989 411.748 318.203 411.748 316C411.748 313.797 409.998 312.011 407.839 312.011C405.679 312.011 403.929 313.797 403.929 316C403.929 318.203 405.679 319.989 407.839 319.989Z" fill="url(#paint77_linear_9606_778)"/>
</g>
<mask id="mask39_9606_778" style="mask-type:alpha" maskUnits="userSpaceOnUse" x="426" y="312" width="9" height="8">
<path d="M430.484 319.989C432.643 319.989 434.394 318.203 434.394 316C434.394 313.797 432.643 312.012 430.484 312.012C428.325 312.012 426.574 313.797 426.574 316C426.574 318.203 428.325 319.989 430.484 319.989Z" fill="url(#paint78_linear_9606_778)"/>
</mask>
<g mask="url(#mask39_9606_778)">
<path d="M430.484 319.989C432.643 319.989 434.393 318.203 434.393 316C434.393 313.797 432.643 312.011 430.484 312.011C428.324 312.011 426.574 313.797 426.574 316C426.574 318.203 428.324 319.989 430.484 319.989Z" fill="url(#paint79_linear_9606_778)"/>
</g>
<mask id="mask40_9606_778" style="mask-type:alpha" maskUnits="userSpaceOnUse" x="336" y="332" width="8" height="9">
<path d="M339.91 340.015C342.069 340.015 343.819 338.23 343.819 336.027C343.819 333.824 342.069 332.038 339.91 332.038C337.75 332.038 336 333.824 336 336.027C336 338.23 337.75 340.015 339.91 340.015Z" fill="url(#paint80_linear_9606_778)"/>
</mask>
<g mask="url(#mask40_9606_778)">
<path d="M339.91 340.015C342.069 340.015 343.819 338.229 343.819 336.027C343.819 333.824 342.069 332.038 339.91 332.038C337.75 332.038 336 333.824 336 336.027C336 338.229 337.75 340.015 339.91 340.015Z" fill="url(#paint81_linear_9606_778)"/>
</g>
<mask id="mask41_9606_778" style="mask-type:alpha" maskUnits="userSpaceOnUse" x="358" y="332" width="9" height="9">
<path d="M362.552 340.015C364.712 340.015 366.462 338.23 366.462 336.027C366.462 333.824 364.712 332.038 362.552 332.038C360.393 332.038 358.643 333.824 358.643 336.027C358.643 338.23 360.393 340.015 362.552 340.015Z" fill="url(#paint82_linear_9606_778)"/>
</mask>
<g mask="url(#mask41_9606_778)">
<path d="M362.553 340.015C364.712 340.015 366.462 338.229 366.462 336.027C366.462 333.824 364.712 332.038 362.553 332.038C360.393 332.038 358.643 333.824 358.643 336.027C358.643 338.229 360.393 340.015 362.553 340.015Z" fill="url(#paint83_linear_9606_778)"/>
</g>
<mask id="mask42_9606_778" style="mask-type:alpha" maskUnits="userSpaceOnUse" x="381" y="332" width="9" height="9">
<path d="M385.195 340.015C387.355 340.015 389.105 338.23 389.105 336.027C389.105 333.824 387.355 332.038 385.195 332.038C383.036 332.038 381.286 333.824 381.286 336.027C381.286 338.23 383.036 340.015 385.195 340.015Z" fill="url(#paint84_linear_9606_778)"/>
</mask>
<g mask="url(#mask42_9606_778)">
<path d="M385.196 340.015C387.355 340.015 389.106 338.229 389.106 336.027C389.106 333.824 387.355 332.038 385.196 332.038C383.037 332.038 381.286 333.824 381.286 336.027C381.286 338.229 383.037 340.015 385.196 340.015Z" fill="url(#paint85_linear_9606_778)"/>
</g>
<mask id="mask43_9606_778" style="mask-type:alpha" maskUnits="userSpaceOnUse" x="403" y="332" width="9" height="9">
<path d="M407.838 340.015C409.997 340.015 411.748 338.23 411.748 336.027C411.748 333.824 409.997 332.038 407.838 332.038C405.679 332.038 403.928 333.824 403.928 336.027C403.928 338.23 405.679 340.015 407.838 340.015Z" fill="url(#paint86_linear_9606_778)"/>
</mask>
<g mask="url(#mask43_9606_778)">
<path d="M407.839 340.015C409.998 340.015 411.748 338.229 411.748 336.027C411.748 333.824 409.998 332.038 407.839 332.038C405.679 332.038 403.929 333.824 403.929 336.027C403.929 338.229 405.679 340.015 407.839 340.015Z" fill="url(#paint87_linear_9606_778)"/>
</g>
<mask id="mask44_9606_778" style="mask-type:alpha" maskUnits="userSpaceOnUse" x="426" y="332" width="9" height="9">
<path d="M430.484 340.015C432.643 340.015 434.394 338.23 434.394 336.027C434.394 333.824 432.643 332.038 430.484 332.038C428.325 332.038 426.574 333.824 426.574 336.027C426.574 338.23 428.325 340.015 430.484 340.015Z" fill="url(#paint88_linear_9606_778)"/>
</mask>
<g mask="url(#mask44_9606_778)">
<path d="M430.484 340.015C432.643 340.015 434.393 338.229 434.393 336.027C434.393 333.824 432.643 332.038 430.484 332.038C428.324 332.038 426.574 333.824 426.574 336.027C426.574 338.229 428.324 340.015 430.484 340.015Z" fill="url(#paint89_linear_9606_778)"/>
</g>
<mask id="mask45_9606_778" style="mask-type:alpha" maskUnits="userSpaceOnUse" x="336" y="352" width="8" height="9">
<path d="M339.91 360.001C342.069 360.001 343.819 358.215 343.819 356.012C343.819 353.809 342.069 352.023 339.91 352.023C337.75 352.023 336 353.809 336 356.012C336 358.215 337.75 360.001 339.91 360.001Z" fill="url(#paint90_linear_9606_778)"/>
</mask>
<g mask="url(#mask45_9606_778)">
<path d="M339.91 360C342.069 360 343.819 358.214 343.819 356.012C343.819 353.809 342.069 352.023 339.91 352.023C337.75 352.023 336 353.809 336 356.012C336 358.214 337.75 360 339.91 360Z" fill="url(#paint91_linear_9606_778)"/>
</g>
<mask id="mask46_9606_778" style="mask-type:alpha" maskUnits="userSpaceOnUse" x="358" y="352" width="9" height="9">
<path d="M362.552 360.001C364.712 360.001 366.462 358.215 366.462 356.012C366.462 353.809 364.712 352.023 362.552 352.023C360.393 352.023 358.643 353.809 358.643 356.012C358.643 358.215 360.393 360.001 362.552 360.001Z" fill="url(#paint92_linear_9606_778)"/>
</mask>
<g mask="url(#mask46_9606_778)">
<path d="M362.553 360C364.712 360 366.462 358.214 366.462 356.012C366.462 353.809 364.712 352.023 362.553 352.023C360.393 352.023 358.643 353.809 358.643 356.012C358.643 358.214 360.393 360 362.553 360Z" fill="url(#paint93_linear_9606_778)"/>
</g>
<mask id="mask47_9606_778" style="mask-type:alpha" maskUnits="userSpaceOnUse" x="381" y="352" width="9" height="9">
<path d="M385.195 360.001C387.355 360.001 389.105 358.215 389.105 356.012C389.105 353.809 387.355 352.023 385.195 352.023C383.036 352.023 381.286 353.809 381.286 356.012C381.286 358.215 383.036 360.001 385.195 360.001Z" fill="url(#paint94_linear_9606_778)"/>
</mask>
<g mask="url(#mask47_9606_778)">
<path d="M385.196 360C387.355 360 389.106 358.214 389.106 356.012C389.106 353.809 387.355 352.023 385.196 352.023C383.037 352.023 381.286 353.809 381.286 356.012C381.286 358.214 383.037 360 385.196 360Z" fill="url(#paint95_linear_9606_778)"/>
</g>
<mask id="mask48_9606_778" style="mask-type:alpha" maskUnits="userSpaceOnUse" x="403" y="352" width="9" height="9">
<path d="M407.838 360.001C409.997 360.001 411.748 358.215 411.748 356.012C411.748 353.809 409.997 352.023 407.838 352.023C405.679 352.023 403.928 353.809 403.928 356.012C403.928 358.215 405.679 360.001 407.838 360.001Z" fill="url(#paint96_linear_9606_778)"/>
</mask>
<g mask="url(#mask48_9606_778)">
<path d="M407.839 360C409.998 360 411.748 358.214 411.748 356.012C411.748 353.809 409.998 352.023 407.839 352.023C405.679 352.023 403.929 353.809 403.929 356.012C403.929 358.214 405.679 360 407.839 360Z" fill="url(#paint97_linear_9606_778)"/>
</g>
<mask id="mask49_9606_778" style="mask-type:alpha" maskUnits="userSpaceOnUse" x="426" y="352" width="9" height="9">
<path d="M430.484 360.001C432.643 360.001 434.394 358.215 434.394 356.012C434.394 353.809 432.643 352.023 430.484 352.023C428.325 352.023 426.574 353.809 426.574 356.012C426.574 358.215 428.325 360.001 430.484 360.001Z" fill="url(#paint98_linear_9606_778)"/>
</mask>
<g mask="url(#mask49_9606_778)">
<path d="M430.484 360C432.643 360 434.393 358.214 434.393 356.012C434.393 353.809 432.643 352.023 430.484 352.023C428.324 352.023 426.574 353.809 426.574 356.012C426.574 358.214 428.324 360 430.484 360Z" fill="url(#paint99_linear_9606_778)"/>
</g>
</g>
<g opacity="0.3">
<mask id="mask50_9606_778" style="mask-type:alpha" maskUnits="userSpaceOnUse" x="1185" y="637" width="8" height="8">
<path d="M1188.91 644.977C1191.07 644.977 1192.82 643.192 1192.82 640.989C1192.82 638.786 1191.07 637 1188.91 637C1186.75 637 1185 638.786 1185 640.989C1185 643.192 1186.75 644.977 1188.91 644.977Z" fill="url(#paint100_linear_9606_778)"/>
</mask>
<g mask="url(#mask50_9606_778)">
<path d="M1188.91 644.977C1191.07 644.977 1192.82 643.192 1192.82 640.989C1192.82 638.786 1191.07 637 1188.91 637C1186.75 637 1185 638.786 1185 640.989C1185 643.192 1186.75 644.977 1188.91 644.977Z" fill="url(#paint101_linear_9606_778)"/>
</g>
<mask id="mask51_9606_778" style="mask-type:alpha" maskUnits="userSpaceOnUse" x="1207" y="637" width="9" height="8">
<path d="M1211.55 644.977C1213.71 644.977 1215.46 643.192 1215.46 640.989C1215.46 638.786 1213.71 637 1211.55 637C1209.39 637 1207.64 638.786 1207.64 640.989C1207.64 643.192 1209.39 644.977 1211.55 644.977Z" fill="url(#paint102_linear_9606_778)"/>
</mask>
<g mask="url(#mask51_9606_778)">
<path d="M1211.55 644.977C1213.71 644.977 1215.46 643.192 1215.46 640.989C1215.46 638.786 1213.71 637 1211.55 637C1209.39 637 1207.64 638.786 1207.64 640.989C1207.64 643.192 1209.39 644.977 1211.55 644.977Z" fill="url(#paint103_linear_9606_778)"/>
</g>
<mask id="mask52_9606_778" style="mask-type:alpha" maskUnits="userSpaceOnUse" x="1230" y="637" width="9" height="8">
<path d="M1234.2 644.977C1236.35 644.977 1238.1 643.192 1238.1 640.989C1238.1 638.786 1236.35 637 1234.2 637C1232.04 637 1230.29 638.786 1230.29 640.989C1230.29 643.192 1232.04 644.977 1234.2 644.977Z" fill="url(#paint104_linear_9606_778)"/>
</mask>
<g mask="url(#mask52_9606_778)">
<path d="M1234.2 644.977C1236.36 644.977 1238.11 643.192 1238.11 640.989C1238.11 638.786 1236.36 637 1234.2 637C1232.04 637 1230.29 638.786 1230.29 640.989C1230.29 643.192 1232.04 644.977 1234.2 644.977Z" fill="url(#paint105_linear_9606_778)"/>
</g>
<mask id="mask53_9606_778" style="mask-type:alpha" maskUnits="userSpaceOnUse" x="1252" y="637" width="9" height="8">
<path d="M1256.84 644.977C1259 644.977 1260.75 643.192 1260.75 640.989C1260.75 638.786 1259 637 1256.84 637C1254.68 637 1252.93 638.786 1252.93 640.989C1252.93 643.192 1254.68 644.977 1256.84 644.977Z" fill="url(#paint106_linear_9606_778)"/>
</mask>
<g mask="url(#mask53_9606_778)">
<path d="M1256.84 644.977C1259 644.977 1260.75 643.192 1260.75 640.989C1260.75 638.786 1259 637 1256.84 637C1254.68 637 1252.93 638.786 1252.93 640.989C1252.93 643.192 1254.68 644.977 1256.84 644.977Z" fill="url(#paint107_linear_9606_778)"/>
</g>
<mask id="mask54_9606_778" style="mask-type:alpha" maskUnits="userSpaceOnUse" x="1275" y="637" width="9" height="8">
<path d="M1279.48 644.977C1281.64 644.977 1283.39 643.192 1283.39 640.989C1283.39 638.786 1281.64 637 1279.48 637C1277.32 637 1275.57 638.786 1275.57 640.989C1275.57 643.192 1277.32 644.977 1279.48 644.977Z" fill="url(#paint108_linear_9606_778)"/>
</mask>
<g mask="url(#mask54_9606_778)">
<path d="M1279.48 644.977C1281.64 644.977 1283.39 643.192 1283.39 640.989C1283.39 638.786 1281.64 637 1279.48 637C1277.32 637 1275.57 638.786 1275.57 640.989C1275.57 643.192 1277.32 644.977 1279.48 644.977Z" fill="url(#paint109_linear_9606_778)"/>
</g>
<mask id="mask55_9606_778" style="mask-type:alpha" maskUnits="userSpaceOnUse" x="1185" y="657" width="8" height="9">
<path d="M1188.91 665.004C1191.07 665.004 1192.82 663.218 1192.82 661.015C1192.82 658.812 1191.07 657.026 1188.91 657.026C1186.75 657.026 1185 658.812 1185 661.015C1185 663.218 1186.75 665.004 1188.91 665.004Z" fill="url(#paint110_linear_9606_778)"/>
</mask>
<g mask="url(#mask55_9606_778)">
<path d="M1188.91 665.004C1191.07 665.004 1192.82 663.218 1192.82 661.015C1192.82 658.812 1191.07 657.026 1188.91 657.026C1186.75 657.026 1185 658.812 1185 661.015C1185 663.218 1186.75 665.004 1188.91 665.004Z" fill="url(#paint111_linear_9606_778)"/>
</g>
<mask id="mask56_9606_778" style="mask-type:alpha" maskUnits="userSpaceOnUse" x="1207" y="657" width="9" height="9">
<path d="M1211.55 665.004C1213.71 665.004 1215.46 663.218 1215.46 661.015C1215.46 658.812 1213.71 657.026 1211.55 657.026C1209.39 657.026 1207.64 658.812 1207.64 661.015C1207.64 663.218 1209.39 665.004 1211.55 665.004Z" fill="url(#paint112_linear_9606_778)"/>
</mask>
<g mask="url(#mask56_9606_778)">
<path d="M1211.55 665.004C1213.71 665.004 1215.46 663.218 1215.46 661.015C1215.46 658.812 1213.71 657.026 1211.55 657.026C1209.39 657.026 1207.64 658.812 1207.64 661.015C1207.64 663.218 1209.39 665.004 1211.55 665.004Z" fill="url(#paint113_linear_9606_778)"/>
</g>
<mask id="mask57_9606_778" style="mask-type:alpha" maskUnits="userSpaceOnUse" x="1230" y="657" width="9" height="9">
<path d="M1234.2 665.004C1236.35 665.004 1238.1 663.218 1238.1 661.015C1238.1 658.812 1236.35 657.026 1234.2 657.026C1232.04 657.026 1230.29 658.812 1230.29 661.015C1230.29 663.218 1232.04 665.004 1234.2 665.004Z" fill="url(#paint114_linear_9606_778)"/>
</mask>
<g mask="url(#mask57_9606_778)">
<path d="M1234.2 665.004C1236.36 665.004 1238.11 663.218 1238.11 661.015C1238.11 658.812 1236.36 657.026 1234.2 657.026C1232.04 657.026 1230.29 658.812 1230.29 661.015C1230.29 663.218 1232.04 665.004 1234.2 665.004Z" fill="url(#paint115_linear_9606_778)"/>
</g>
<mask id="mask58_9606_778" style="mask-type:alpha" maskUnits="userSpaceOnUse" x="1252" y="657" width="9" height="9">
<path d="M1256.84 665.004C1259 665.004 1260.75 663.218 1260.75 661.015C1260.75 658.812 1259 657.026 1256.84 657.026C1254.68 657.026 1252.93 658.812 1252.93 661.015C1252.93 663.218 1254.68 665.004 1256.84 665.004Z" fill="url(#paint116_linear_9606_778)"/>
</mask>
<g mask="url(#mask58_9606_778)">
<path d="M1256.84 665.004C1259 665.004 1260.75 663.218 1260.75 661.015C1260.75 658.812 1259 657.026 1256.84 657.026C1254.68 657.026 1252.93 658.812 1252.93 661.015C1252.93 663.218 1254.68 665.004 1256.84 665.004Z" fill="url(#paint117_linear_9606_778)"/>
</g>
<mask id="mask59_9606_778" style="mask-type:alpha" maskUnits="userSpaceOnUse" x="1275" y="657" width="9" height="9">
<path d="M1279.48 665.004C1281.64 665.004 1283.39 663.218 1283.39 661.015C1283.39 658.812 1281.64 657.026 1279.48 657.026C1277.32 657.026 1275.57 658.812 1275.57 661.015C1275.57 663.218 1277.32 665.004 1279.48 665.004Z" fill="url(#paint118_linear_9606_778)"/>
</mask>
<g mask="url(#mask59_9606_778)">
<path d="M1279.48 665.004C1281.64 665.004 1283.39 663.218 1283.39 661.015C1283.39 658.812 1281.64 657.026 1279.48 657.026C1277.32 657.026 1275.57 658.812 1275.57 661.015C1275.57 663.218 1277.32 665.004 1279.48 665.004Z" fill="url(#paint119_linear_9606_778)"/>
</g>
<mask id="mask60_9606_778" style="mask-type:alpha" maskUnits="userSpaceOnUse" x="1185" y="677" width="8" height="8">
<path d="M1188.91 684.989C1191.07 684.989 1192.82 683.203 1192.82 681C1192.82 678.797 1191.07 677.011 1188.91 677.011C1186.75 677.011 1185 678.797 1185 681C1185 683.203 1186.75 684.989 1188.91 684.989Z" fill="url(#paint120_linear_9606_778)"/>
</mask>
<g mask="url(#mask60_9606_778)">
<path d="M1188.91 684.989C1191.07 684.989 1192.82 683.203 1192.82 681C1192.82 678.797 1191.07 677.011 1188.91 677.011C1186.75 677.011 1185 678.797 1185 681C1185 683.203 1186.75 684.989 1188.91 684.989Z" fill="url(#paint121_linear_9606_778)"/>
</g>
<mask id="mask61_9606_778" style="mask-type:alpha" maskUnits="userSpaceOnUse" x="1207" y="677" width="9" height="8">
<path d="M1211.55 684.989C1213.71 684.989 1215.46 683.203 1215.46 681C1215.46 678.797 1213.71 677.012 1211.55 677.012C1209.39 677.012 1207.64 678.797 1207.64 681C1207.64 683.203 1209.39 684.989 1211.55 684.989Z" fill="url(#paint122_linear_9606_778)"/>
</mask>
<g mask="url(#mask61_9606_778)">
<path d="M1211.55 684.989C1213.71 684.989 1215.46 683.203 1215.46 681C1215.46 678.797 1213.71 677.011 1211.55 677.011C1209.39 677.011 1207.64 678.797 1207.64 681C1207.64 683.203 1209.39 684.989 1211.55 684.989Z" fill="url(#paint123_linear_9606_778)"/>
</g>
<mask id="mask62_9606_778" style="mask-type:alpha" maskUnits="userSpaceOnUse" x="1230" y="677" width="9" height="8">
<path d="M1234.2 684.989C1236.35 684.989 1238.1 683.203 1238.1 681C1238.1 678.797 1236.35 677.012 1234.2 677.012C1232.04 677.012 1230.29 678.797 1230.29 681C1230.29 683.203 1232.04 684.989 1234.2 684.989Z" fill="url(#paint124_linear_9606_778)"/>
</mask>
<g mask="url(#mask62_9606_778)">
<path d="M1234.2 684.989C1236.36 684.989 1238.11 683.203 1238.11 681C1238.11 678.797 1236.36 677.011 1234.2 677.011C1232.04 677.011 1230.29 678.797 1230.29 681C1230.29 683.203 1232.04 684.989 1234.2 684.989Z" fill="url(#paint125_linear_9606_778)"/>
</g>
<mask id="mask63_9606_778" style="mask-type:alpha" maskUnits="userSpaceOnUse" x="1252" y="677" width="9" height="8">
<path d="M1256.84 684.989C1259 684.989 1260.75 683.203 1260.75 681C1260.75 678.797 1259 677.012 1256.84 677.012C1254.68 677.012 1252.93 678.797 1252.93 681C1252.93 683.203 1254.68 684.989 1256.84 684.989Z" fill="url(#paint126_linear_9606_778)"/>
</mask>
<g mask="url(#mask63_9606_778)">
<path d="M1256.84 684.989C1259 684.989 1260.75 683.203 1260.75 681C1260.75 678.797 1259 677.011 1256.84 677.011C1254.68 677.011 1252.93 678.797 1252.93 681C1252.93 683.203 1254.68 684.989 1256.84 684.989Z" fill="url(#paint127_linear_9606_778)"/>
</g>
<mask id="mask64_9606_778" style="mask-type:alpha" maskUnits="userSpaceOnUse" x="1275" y="677" width="9" height="8">
<path d="M1279.48 684.989C1281.64 684.989 1283.39 683.203 1283.39 681C1283.39 678.797 1281.64 677.012 1279.48 677.012C1277.32 677.012 1275.57 678.797 1275.57 681C1275.57 683.203 1277.32 684.989 1279.48 684.989Z" fill="url(#paint128_linear_9606_778)"/>
</mask>
<g mask="url(#mask64_9606_778)">
<path d="M1279.48 684.989C1281.64 684.989 1283.39 683.203 1283.39 681C1283.39 678.797 1281.64 677.011 1279.48 677.011C1277.32 677.011 1275.57 678.797 1275.57 681C1275.57 683.203 1277.32 684.989 1279.48 684.989Z" fill="url(#paint129_linear_9606_778)"/>
</g>
<mask id="mask65_9606_778" style="mask-type:alpha" maskUnits="userSpaceOnUse" x="1185" y="697" width="8" height="9">
<path d="M1188.91 705.015C1191.07 705.015 1192.82 703.23 1192.82 701.027C1192.82 698.824 1191.07 697.038 1188.91 697.038C1186.75 697.038 1185 698.824 1185 701.027C1185 703.23 1186.75 705.015 1188.91 705.015Z" fill="url(#paint130_linear_9606_778)"/>
</mask>
<g mask="url(#mask65_9606_778)">
<path d="M1188.91 705.015C1191.07 705.015 1192.82 703.229 1192.82 701.027C1192.82 698.824 1191.07 697.038 1188.91 697.038C1186.75 697.038 1185 698.824 1185 701.027C1185 703.229 1186.75 705.015 1188.91 705.015Z" fill="url(#paint131_linear_9606_778)"/>
</g>
<mask id="mask66_9606_778" style="mask-type:alpha" maskUnits="userSpaceOnUse" x="1207" y="697" width="9" height="9">
<path d="M1211.55 705.015C1213.71 705.015 1215.46 703.23 1215.46 701.027C1215.46 698.824 1213.71 697.038 1211.55 697.038C1209.39 697.038 1207.64 698.824 1207.64 701.027C1207.64 703.23 1209.39 705.015 1211.55 705.015Z" fill="url(#paint132_linear_9606_778)"/>
</mask>
<g mask="url(#mask66_9606_778)">
<path d="M1211.55 705.015C1213.71 705.015 1215.46 703.229 1215.46 701.027C1215.46 698.824 1213.71 697.038 1211.55 697.038C1209.39 697.038 1207.64 698.824 1207.64 701.027C1207.64 703.229 1209.39 705.015 1211.55 705.015Z" fill="url(#paint133_linear_9606_778)"/>
</g>
<mask id="mask67_9606_778" style="mask-type:alpha" maskUnits="userSpaceOnUse" x="1230" y="697" width="9" height="9">
<path d="M1234.2 705.015C1236.35 705.015 1238.1 703.23 1238.1 701.027C1238.1 698.824 1236.35 697.038 1234.2 697.038C1232.04 697.038 1230.29 698.824 1230.29 701.027C1230.29 703.23 1232.04 705.015 1234.2 705.015Z" fill="url(#paint134_linear_9606_778)"/>
</mask>
<g mask="url(#mask67_9606_778)">
<path d="M1234.2 705.015C1236.36 705.015 1238.11 703.229 1238.11 701.027C1238.11 698.824 1236.36 697.038 1234.2 697.038C1232.04 697.038 1230.29 698.824 1230.29 701.027C1230.29 703.229 1232.04 705.015 1234.2 705.015Z" fill="url(#paint135_linear_9606_778)"/>
</g>
<mask id="mask68_9606_778" style="mask-type:alpha" maskUnits="userSpaceOnUse" x="1252" y="697" width="9" height="9">
<path d="M1256.84 705.015C1259 705.015 1260.75 703.23 1260.75 701.027C1260.75 698.824 1259 697.038 1256.84 697.038C1254.68 697.038 1252.93 698.824 1252.93 701.027C1252.93 703.23 1254.68 705.015 1256.84 705.015Z" fill="url(#paint136_linear_9606_778)"/>
</mask>
<g mask="url(#mask68_9606_778)">
<path d="M1256.84 705.015C1259 705.015 1260.75 703.229 1260.75 701.027C1260.75 698.824 1259 697.038 1256.84 697.038C1254.68 697.038 1252.93 698.824 1252.93 701.027C1252.93 703.229 1254.68 705.015 1256.84 705.015Z" fill="url(#paint137_linear_9606_778)"/>
</g>
<mask id="mask69_9606_778" style="mask-type:alpha" maskUnits="userSpaceOnUse" x="1275" y="697" width="9" height="9">
<path d="M1279.48 705.015C1281.64 705.015 1283.39 703.23 1283.39 701.027C1283.39 698.824 1281.64 697.038 1279.48 697.038C1277.32 697.038 1275.57 698.824 1275.57 701.027C1275.57 703.23 1277.32 705.015 1279.48 705.015Z" fill="url(#paint138_linear_9606_778)"/>
</mask>
<g mask="url(#mask69_9606_778)">
<path d="M1279.48 705.015C1281.64 705.015 1283.39 703.229 1283.39 701.027C1283.39 698.824 1281.64 697.038 1279.48 697.038C1277.32 697.038 1275.57 698.824 1275.57 701.027C1275.57 703.229 1277.32 705.015 1279.48 705.015Z" fill="url(#paint139_linear_9606_778)"/>
</g>
<mask id="mask70_9606_778" style="mask-type:alpha" maskUnits="userSpaceOnUse" x="1185" y="717" width="8" height="9">
<path d="M1188.91 725.001C1191.07 725.001 1192.82 723.215 1192.82 721.012C1192.82 718.809 1191.07 717.023 1188.91 717.023C1186.75 717.023 1185 718.809 1185 721.012C1185 723.215 1186.75 725.001 1188.91 725.001Z" fill="url(#paint140_linear_9606_778)"/>
</mask>
<g mask="url(#mask70_9606_778)">
<path d="M1188.91 725C1191.07 725 1192.82 723.214 1192.82 721.012C1192.82 718.809 1191.07 717.023 1188.91 717.023C1186.75 717.023 1185 718.809 1185 721.012C1185 723.214 1186.75 725 1188.91 725Z" fill="url(#paint141_linear_9606_778)"/>
</g>
<mask id="mask71_9606_778" style="mask-type:alpha" maskUnits="userSpaceOnUse" x="1207" y="717" width="9" height="9">
<path d="M1211.55 725.001C1213.71 725.001 1215.46 723.215 1215.46 721.012C1215.46 718.809 1213.71 717.023 1211.55 717.023C1209.39 717.023 1207.64 718.809 1207.64 721.012C1207.64 723.215 1209.39 725.001 1211.55 725.001Z" fill="url(#paint142_linear_9606_778)"/>
</mask>
<g mask="url(#mask71_9606_778)">
<path d="M1211.55 725C1213.71 725 1215.46 723.214 1215.46 721.012C1215.46 718.809 1213.71 717.023 1211.55 717.023C1209.39 717.023 1207.64 718.809 1207.64 721.012C1207.64 723.214 1209.39 725 1211.55 725Z" fill="url(#paint143_linear_9606_778)"/>
</g>
<mask id="mask72_9606_778" style="mask-type:alpha" maskUnits="userSpaceOnUse" x="1230" y="717" width="9" height="9">
<path d="M1234.2 725.001C1236.35 725.001 1238.1 723.215 1238.1 721.012C1238.1 718.809 1236.35 717.023 1234.2 717.023C1232.04 717.023 1230.29 718.809 1230.29 721.012C1230.29 723.215 1232.04 725.001 1234.2 725.001Z" fill="url(#paint144_linear_9606_778)"/>
</mask>
<g mask="url(#mask72_9606_778)">
<path d="M1234.2 725C1236.36 725 1238.11 723.214 1238.11 721.012C1238.11 718.809 1236.36 717.023 1234.2 717.023C1232.04 717.023 1230.29 718.809 1230.29 721.012C1230.29 723.214 1232.04 725 1234.2 725Z" fill="url(#paint145_linear_9606_778)"/>
</g>
<mask id="mask73_9606_778" style="mask-type:alpha" maskUnits="userSpaceOnUse" x="1252" y="717" width="9" height="9">
<path d="M1256.84 725.001C1259 725.001 1260.75 723.215 1260.75 721.012C1260.75 718.809 1259 717.023 1256.84 717.023C1254.68 717.023 1252.93 718.809 1252.93 721.012C1252.93 723.215 1254.68 725.001 1256.84 725.001Z" fill="url(#paint146_linear_9606_778)"/>
</mask>
<g mask="url(#mask73_9606_778)">
<path d="M1256.84 725C1259 725 1260.75 723.214 1260.75 721.012C1260.75 718.809 1259 717.023 1256.84 717.023C1254.68 717.023 1252.93 718.809 1252.93 721.012C1252.93 723.214 1254.68 725 1256.84 725Z" fill="url(#paint147_linear_9606_778)"/>
</g>
<mask id="mask74_9606_778" style="mask-type:alpha" maskUnits="userSpaceOnUse" x="1275" y="717" width="9" height="9">
<path d="M1279.48 725.001C1281.64 725.001 1283.39 723.215 1283.39 721.012C1283.39 718.809 1281.64 717.023 1279.48 717.023C1277.32 717.023 1275.57 718.809 1275.57 721.012C1275.57 723.215 1277.32 725.001 1279.48 725.001Z" fill="url(#paint148_linear_9606_778)"/>
</mask>
<g mask="url(#mask74_9606_778)">
<path d="M1279.48 725C1281.64 725 1283.39 723.214 1283.39 721.012C1283.39 718.809 1281.64 717.023 1279.48 717.023C1277.32 717.023 1275.57 718.809 1275.57 721.012C1275.57 723.214 1277.32 725 1279.48 725Z" fill="url(#paint149_linear_9606_778)"/>
</g>
</g>
</g>
<defs>
<linearGradient id="paint0_linear_9606_778" x1="283.076" y1="266.471" x2="227.514" y2="128.224" gradientUnits="userSpaceOnUse">
<stop stop-color="#FFA434"/>
<stop offset="1" stop-color="#FFA434"/>
</linearGradient>
<linearGradient id="paint1_linear_9606_778" x1="283.076" y1="266.471" x2="227.514" y2="128.224" gradientUnits="userSpaceOnUse">
<stop stop-color="#FFA434"/>
<stop offset="1" stop-color="#FFA434"/>
</linearGradient>
<linearGradient id="paint2_linear_9606_778" x1="305.719" y1="266.471" x2="250.157" y2="128.224" gradientUnits="userSpaceOnUse">
<stop stop-color="#FFA434"/>
<stop offset="1" stop-color="#FFA434"/>
</linearGradient>
<linearGradient id="paint3_linear_9606_778" x1="305.719" y1="266.471" x2="250.157" y2="128.224" gradientUnits="userSpaceOnUse">
<stop stop-color="#FFA434"/>
<stop offset="1" stop-color="#FFA434"/>
</linearGradient>
<linearGradient id="paint4_linear_9606_778" x1="328.362" y1="266.471" x2="272.8" y2="128.224" gradientUnits="userSpaceOnUse">
<stop stop-color="#FFA434"/>
<stop offset="1" stop-color="#FFA434"/>
</linearGradient>
<linearGradient id="paint5_linear_9606_778" x1="328.362" y1="266.471" x2="272.8" y2="128.224" gradientUnits="userSpaceOnUse">
<stop stop-color="#FFA434"/>
<stop offset="1" stop-color="#FFA434"/>
</linearGradient>
<linearGradient id="paint6_linear_9606_778" x1="351.004" y1="266.471" x2="295.443" y2="128.224" gradientUnits="userSpaceOnUse">
<stop stop-color="#FFA434"/>
<stop offset="1" stop-color="#FFA434"/>
</linearGradient>
<linearGradient id="paint7_linear_9606_778" x1="351.005" y1="266.471" x2="295.443" y2="128.224" gradientUnits="userSpaceOnUse">
<stop stop-color="#FFA434"/>
<stop offset="1" stop-color="#FFA434"/>
</linearGradient>
<linearGradient id="paint8_linear_9606_778" x1="373.65" y1="266.471" x2="318.089" y2="128.224" gradientUnits="userSpaceOnUse">
<stop stop-color="#FFA434"/>
<stop offset="1" stop-color="#FFA434"/>
</linearGradient>
<linearGradient id="paint9_linear_9606_778" x1="373.65" y1="266.471" x2="318.088" y2="128.224" gradientUnits="userSpaceOnUse">
<stop stop-color="#FFA434"/>
<stop offset="1" stop-color="#FFA434"/>
</linearGradient>
<linearGradient id="paint10_linear_9606_778" x1="283.076" y1="286.496" x2="227.515" y2="148.25" gradientUnits="userSpaceOnUse">
<stop stop-color="#FFA434"/>
<stop offset="1" stop-color="#FFA434"/>
</linearGradient>
<linearGradient id="paint11_linear_9606_778" x1="283.076" y1="286.496" x2="227.515" y2="148.25" gradientUnits="userSpaceOnUse">
<stop stop-color="#FFA434"/>
<stop offset="1" stop-color="#FFA434"/>
</linearGradient>
<linearGradient id="paint12_linear_9606_778" x1="305.719" y1="286.496" x2="250.158" y2="148.25" gradientUnits="userSpaceOnUse">
<stop stop-color="#FFA434"/>
<stop offset="1" stop-color="#FFA434"/>
</linearGradient>
<linearGradient id="paint13_linear_9606_778" x1="305.719" y1="286.496" x2="250.158" y2="148.25" gradientUnits="userSpaceOnUse">
<stop stop-color="#FFA434"/>
<stop offset="1" stop-color="#FFA434"/>
</linearGradient>
<linearGradient id="paint14_linear_9606_778" x1="328.362" y1="286.496" x2="272.801" y2="148.25" gradientUnits="userSpaceOnUse">
<stop stop-color="#FFA434"/>
<stop offset="1" stop-color="#FFA434"/>
</linearGradient>
<linearGradient id="paint15_linear_9606_778" x1="328.362" y1="286.496" x2="272.801" y2="148.25" gradientUnits="userSpaceOnUse">
<stop stop-color="#FFA434"/>
<stop offset="1" stop-color="#FFA434"/>
</linearGradient>
<linearGradient id="paint16_linear_9606_778" x1="351.004" y1="286.496" x2="295.443" y2="148.25" gradientUnits="userSpaceOnUse">
<stop stop-color="#FFA434"/>
<stop offset="1" stop-color="#FFA434"/>
</linearGradient>
<linearGradient id="paint17_linear_9606_778" x1="351.005" y1="286.496" x2="295.444" y2="148.25" gradientUnits="userSpaceOnUse">
<stop stop-color="#FFA434"/>
<stop offset="1" stop-color="#FFA434"/>
</linearGradient>
<linearGradient id="paint18_linear_9606_778" x1="373.65" y1="286.496" x2="318.089" y2="148.25" gradientUnits="userSpaceOnUse">
<stop stop-color="#FFA434"/>
<stop offset="1" stop-color="#FFA434"/>
</linearGradient>
<linearGradient id="paint19_linear_9606_778" x1="373.65" y1="286.496" x2="318.089" y2="148.25" gradientUnits="userSpaceOnUse">
<stop stop-color="#FFA434"/>
<stop offset="1" stop-color="#FFA434"/>
</linearGradient>
<linearGradient id="paint20_linear_9606_778" x1="283.076" y1="306.482" x2="227.514" y2="168.235" gradientUnits="userSpaceOnUse">
<stop stop-color="#FFA434"/>
<stop offset="1" stop-color="#FFA434"/>
</linearGradient>
<linearGradient id="paint21_linear_9606_778" x1="283.076" y1="306.482" x2="227.514" y2="168.235" gradientUnits="userSpaceOnUse">
<stop stop-color="#FFA434"/>
<stop offset="1" stop-color="#FFA434"/>
</linearGradient>
<linearGradient id="paint22_linear_9606_778" x1="305.719" y1="306.482" x2="250.157" y2="168.235" gradientUnits="userSpaceOnUse">
<stop stop-color="#FFA434"/>
<stop offset="1" stop-color="#FFA434"/>
</linearGradient>
<linearGradient id="paint23_linear_9606_778" x1="305.719" y1="306.482" x2="250.157" y2="168.235" gradientUnits="userSpaceOnUse">
<stop stop-color="#FFA434"/>
<stop offset="1" stop-color="#FFA434"/>
</linearGradient>
<linearGradient id="paint24_linear_9606_778" x1="328.362" y1="306.482" x2="272.8" y2="168.235" gradientUnits="userSpaceOnUse">
<stop stop-color="#FFA434"/>
<stop offset="1" stop-color="#FFA434"/>
</linearGradient>
<linearGradient id="paint25_linear_9606_778" x1="328.362" y1="306.482" x2="272.8" y2="168.235" gradientUnits="userSpaceOnUse">
<stop stop-color="#FFA434"/>
<stop offset="1" stop-color="#FFA434"/>
</linearGradient>
<linearGradient id="paint26_linear_9606_778" x1="351.004" y1="306.482" x2="295.443" y2="168.235" gradientUnits="userSpaceOnUse">
<stop stop-color="#FFA434"/>
<stop offset="1" stop-color="#FFA434"/>
</linearGradient>
<linearGradient id="paint27_linear_9606_778" x1="351.005" y1="306.482" x2="295.443" y2="168.235" gradientUnits="userSpaceOnUse">
<stop stop-color="#FFA434"/>
<stop offset="1" stop-color="#FFA434"/>
</linearGradient>
<linearGradient id="paint28_linear_9606_778" x1="373.65" y1="306.482" x2="318.089" y2="168.235" gradientUnits="userSpaceOnUse">
<stop stop-color="#FFA434"/>
<stop offset="1" stop-color="#FFA434"/>
</linearGradient>
<linearGradient id="paint29_linear_9606_778" x1="373.65" y1="306.482" x2="318.088" y2="168.235" gradientUnits="userSpaceOnUse">
<stop stop-color="#FFA434"/>
<stop offset="1" stop-color="#FFA434"/>
</linearGradient>
<linearGradient id="paint30_linear_9606_778" x1="283.076" y1="326.509" x2="227.514" y2="188.262" gradientUnits="userSpaceOnUse">
<stop stop-color="#FFA434"/>
<stop offset="1" stop-color="#FFA434"/>
</linearGradient>
<linearGradient id="paint31_linear_9606_778" x1="283.076" y1="326.509" x2="227.514" y2="188.261" gradientUnits="userSpaceOnUse">
<stop stop-color="#FFA434"/>
<stop offset="1" stop-color="#FFA434"/>
</linearGradient>
<linearGradient id="paint32_linear_9606_778" x1="305.719" y1="326.509" x2="250.157" y2="188.262" gradientUnits="userSpaceOnUse">
<stop stop-color="#FFA434"/>
<stop offset="1" stop-color="#FFA434"/>
</linearGradient>
<linearGradient id="paint33_linear_9606_778" x1="305.719" y1="326.509" x2="250.157" y2="188.261" gradientUnits="userSpaceOnUse">
<stop stop-color="#FFA434"/>
<stop offset="1" stop-color="#FFA434"/>
</linearGradient>
<linearGradient id="paint34_linear_9606_778" x1="328.362" y1="326.509" x2="272.8" y2="188.262" gradientUnits="userSpaceOnUse">
<stop stop-color="#FFA434"/>
<stop offset="1" stop-color="#FFA434"/>
</linearGradient>
<linearGradient id="paint35_linear_9606_778" x1="328.362" y1="326.509" x2="272.8" y2="188.261" gradientUnits="userSpaceOnUse">
<stop stop-color="#FFA434"/>
<stop offset="1" stop-color="#FFA434"/>
</linearGradient>
<linearGradient id="paint36_linear_9606_778" x1="351.004" y1="326.509" x2="295.443" y2="188.262" gradientUnits="userSpaceOnUse">
<stop stop-color="#FFA434"/>
<stop offset="1" stop-color="#FFA434"/>
</linearGradient>
<linearGradient id="paint37_linear_9606_778" x1="351.005" y1="326.509" x2="295.443" y2="188.261" gradientUnits="userSpaceOnUse">
<stop stop-color="#FFA434"/>
<stop offset="1" stop-color="#FFA434"/>
</linearGradient>
<linearGradient id="paint38_linear_9606_778" x1="373.65" y1="326.509" x2="318.089" y2="188.262" gradientUnits="userSpaceOnUse">
<stop stop-color="#FFA434"/>
<stop offset="1" stop-color="#FFA434"/>
</linearGradient>
<linearGradient id="paint39_linear_9606_778" x1="373.65" y1="326.509" x2="318.088" y2="188.261" gradientUnits="userSpaceOnUse">
<stop stop-color="#FFA434"/>
<stop offset="1" stop-color="#FFA434"/>
</linearGradient>
<linearGradient id="paint40_linear_9606_778" x1="283.076" y1="346.494" x2="227.514" y2="208.247" gradientUnits="userSpaceOnUse">
<stop stop-color="#FFA434"/>
<stop offset="1" stop-color="#FFA434"/>
</linearGradient>
<linearGradient id="paint41_linear_9606_778" x1="283.076" y1="346.494" x2="227.514" y2="208.246" gradientUnits="userSpaceOnUse">
<stop stop-color="#FFA434"/>
<stop offset="1" stop-color="#FFA434"/>
</linearGradient>
<linearGradient id="paint42_linear_9606_778" x1="305.719" y1="346.494" x2="250.157" y2="208.247" gradientUnits="userSpaceOnUse">
<stop stop-color="#FFA434"/>
<stop offset="1" stop-color="#FFA434"/>
</linearGradient>
<linearGradient id="paint43_linear_9606_778" x1="305.719" y1="346.494" x2="250.157" y2="208.246" gradientUnits="userSpaceOnUse">
<stop stop-color="#FFA434"/>
<stop offset="1" stop-color="#FFA434"/>
</linearGradient>
<linearGradient id="paint44_linear_9606_778" x1="328.362" y1="346.494" x2="272.8" y2="208.247" gradientUnits="userSpaceOnUse">
<stop stop-color="#FFA434"/>
<stop offset="1" stop-color="#FFA434"/>
</linearGradient>
<linearGradient id="paint45_linear_9606_778" x1="328.362" y1="346.494" x2="272.8" y2="208.246" gradientUnits="userSpaceOnUse">
<stop stop-color="#FFA434"/>
<stop offset="1" stop-color="#FFA434"/>
</linearGradient>
<linearGradient id="paint46_linear_9606_778" x1="351.004" y1="346.494" x2="295.443" y2="208.247" gradientUnits="userSpaceOnUse">
<stop stop-color="#FFA434"/>
<stop offset="1" stop-color="#FFA434"/>
</linearGradient>
<linearGradient id="paint47_linear_9606_778" x1="351.005" y1="346.494" x2="295.443" y2="208.246" gradientUnits="userSpaceOnUse">
<stop stop-color="#FFA434"/>
<stop offset="1" stop-color="#FFA434"/>
</linearGradient>
<linearGradient id="paint48_linear_9606_778" x1="373.65" y1="346.494" x2="318.089" y2="208.247" gradientUnits="userSpaceOnUse">
<stop stop-color="#FFA434"/>
<stop offset="1" stop-color="#FFA434"/>
</linearGradient>
<linearGradient id="paint49_linear_9606_778" x1="373.65" y1="346.494" x2="318.088" y2="208.246" gradientUnits="userSpaceOnUse">
<stop stop-color="#FFA434"/>
<stop offset="1" stop-color="#FFA434"/>
</linearGradient>
<linearGradient id="paint50_linear_9606_778" x1="374.076" y1="364.471" x2="318.514" y2="226.224" gradientUnits="userSpaceOnUse">
<stop stop-color="#FFA434"/>
<stop offset="1" stop-color="#FFA434"/>
</linearGradient>
<linearGradient id="paint51_linear_9606_778" x1="374.076" y1="364.471" x2="318.514" y2="226.224" gradientUnits="userSpaceOnUse">
<stop stop-color="#FFA434"/>
<stop offset="1" stop-color="#FFA434"/>
</linearGradient>
<linearGradient id="paint52_linear_9606_778" x1="396.719" y1="364.471" x2="341.157" y2="226.224" gradientUnits="userSpaceOnUse">
<stop stop-color="#FFA434"/>
<stop offset="1" stop-color="#FFA434"/>
</linearGradient>
<linearGradient id="paint53_linear_9606_778" x1="396.719" y1="364.471" x2="341.157" y2="226.224" gradientUnits="userSpaceOnUse">
<stop stop-color="#FFA434"/>
<stop offset="1" stop-color="#FFA434"/>
</linearGradient>
<linearGradient id="paint54_linear_9606_778" x1="419.362" y1="364.471" x2="363.8" y2="226.224" gradientUnits="userSpaceOnUse">
<stop stop-color="#FFA434"/>
<stop offset="1" stop-color="#FFA434"/>
</linearGradient>
<linearGradient id="paint55_linear_9606_778" x1="419.362" y1="364.471" x2="363.8" y2="226.224" gradientUnits="userSpaceOnUse">
<stop stop-color="#FFA434"/>
<stop offset="1" stop-color="#FFA434"/>
</linearGradient>
<linearGradient id="paint56_linear_9606_778" x1="442.004" y1="364.471" x2="386.443" y2="226.224" gradientUnits="userSpaceOnUse">
<stop stop-color="#FFA434"/>
<stop offset="1" stop-color="#FFA434"/>
</linearGradient>
<linearGradient id="paint57_linear_9606_778" x1="442.005" y1="364.471" x2="386.443" y2="226.224" gradientUnits="userSpaceOnUse">
<stop stop-color="#FFA434"/>
<stop offset="1" stop-color="#FFA434"/>
</linearGradient>
<linearGradient id="paint58_linear_9606_778" x1="464.65" y1="364.471" x2="409.089" y2="226.224" gradientUnits="userSpaceOnUse">
<stop stop-color="#FFA434"/>
<stop offset="1" stop-color="#FFA434"/>
</linearGradient>
<linearGradient id="paint59_linear_9606_778" x1="464.65" y1="364.471" x2="409.088" y2="226.224" gradientUnits="userSpaceOnUse">
<stop stop-color="#FFA434"/>
<stop offset="1" stop-color="#FFA434"/>
</linearGradient>
<linearGradient id="paint60_linear_9606_778" x1="374.076" y1="384.496" x2="318.515" y2="246.25" gradientUnits="userSpaceOnUse">
<stop stop-color="#FFA434"/>
<stop offset="1" stop-color="#FFA434"/>
</linearGradient>
<linearGradient id="paint61_linear_9606_778" x1="374.076" y1="384.496" x2="318.515" y2="246.25" gradientUnits="userSpaceOnUse">
<stop stop-color="#FFA434"/>
<stop offset="1" stop-color="#FFA434"/>
</linearGradient>
<linearGradient id="paint62_linear_9606_778" x1="396.719" y1="384.496" x2="341.158" y2="246.25" gradientUnits="userSpaceOnUse">
<stop stop-color="#FFA434"/>
<stop offset="1" stop-color="#FFA434"/>
</linearGradient>
<linearGradient id="paint63_linear_9606_778" x1="396.719" y1="384.496" x2="341.158" y2="246.25" gradientUnits="userSpaceOnUse">
<stop stop-color="#FFA434"/>
<stop offset="1" stop-color="#FFA434"/>
</linearGradient>
<linearGradient id="paint64_linear_9606_778" x1="419.362" y1="384.496" x2="363.801" y2="246.25" gradientUnits="userSpaceOnUse">
<stop stop-color="#FFA434"/>
<stop offset="1" stop-color="#FFA434"/>
</linearGradient>
<linearGradient id="paint65_linear_9606_778" x1="419.362" y1="384.496" x2="363.801" y2="246.25" gradientUnits="userSpaceOnUse">
<stop stop-color="#FFA434"/>
<stop offset="1" stop-color="#FFA434"/>
</linearGradient>
<linearGradient id="paint66_linear_9606_778" x1="442.004" y1="384.496" x2="386.443" y2="246.25" gradientUnits="userSpaceOnUse">
<stop stop-color="#FFA434"/>
<stop offset="1" stop-color="#FFA434"/>
</linearGradient>
<linearGradient id="paint67_linear_9606_778" x1="442.005" y1="384.496" x2="386.444" y2="246.25" gradientUnits="userSpaceOnUse">
<stop stop-color="#FFA434"/>
<stop offset="1" stop-color="#FFA434"/>
</linearGradient>
<linearGradient id="paint68_linear_9606_778" x1="464.65" y1="384.496" x2="409.089" y2="246.25" gradientUnits="userSpaceOnUse">
<stop stop-color="#FFA434"/>
<stop offset="1" stop-color="#FFA434"/>
</linearGradient>
<linearGradient id="paint69_linear_9606_778" x1="464.65" y1="384.496" x2="409.089" y2="246.25" gradientUnits="userSpaceOnUse">
<stop stop-color="#FFA434"/>
<stop offset="1" stop-color="#FFA434"/>
</linearGradient>
<linearGradient id="paint70_linear_9606_778" x1="374.076" y1="404.482" x2="318.514" y2="266.235" gradientUnits="userSpaceOnUse">
<stop stop-color="#FFA434"/>
<stop offset="1" stop-color="#FFA434"/>
</linearGradient>
<linearGradient id="paint71_linear_9606_778" x1="374.076" y1="404.482" x2="318.514" y2="266.235" gradientUnits="userSpaceOnUse">
<stop stop-color="#FFA434"/>
<stop offset="1" stop-color="#FFA434"/>
</linearGradient>
<linearGradient id="paint72_linear_9606_778" x1="396.719" y1="404.482" x2="341.157" y2="266.235" gradientUnits="userSpaceOnUse">
<stop stop-color="#FFA434"/>
<stop offset="1" stop-color="#FFA434"/>
</linearGradient>
<linearGradient id="paint73_linear_9606_778" x1="396.719" y1="404.482" x2="341.157" y2="266.235" gradientUnits="userSpaceOnUse">
<stop stop-color="#FFA434"/>
<stop offset="1" stop-color="#FFA434"/>
</linearGradient>
<linearGradient id="paint74_linear_9606_778" x1="419.362" y1="404.482" x2="363.8" y2="266.235" gradientUnits="userSpaceOnUse">
<stop stop-color="#FFA434"/>
<stop offset="1" stop-color="#FFA434"/>
</linearGradient>
<linearGradient id="paint75_linear_9606_778" x1="419.362" y1="404.482" x2="363.8" y2="266.235" gradientUnits="userSpaceOnUse">
<stop stop-color="#FFA434"/>
<stop offset="1" stop-color="#FFA434"/>
</linearGradient>
<linearGradient id="paint76_linear_9606_778" x1="442.004" y1="404.482" x2="386.443" y2="266.235" gradientUnits="userSpaceOnUse">
<stop stop-color="#FFA434"/>
<stop offset="1" stop-color="#FFA434"/>
</linearGradient>
<linearGradient id="paint77_linear_9606_778" x1="442.005" y1="404.482" x2="386.443" y2="266.235" gradientUnits="userSpaceOnUse">
<stop stop-color="#FFA434"/>
<stop offset="1" stop-color="#FFA434"/>
</linearGradient>
<linearGradient id="paint78_linear_9606_778" x1="464.65" y1="404.482" x2="409.089" y2="266.235" gradientUnits="userSpaceOnUse">
<stop stop-color="#FFA434"/>
<stop offset="1" stop-color="#FFA434"/>
</linearGradient>
<linearGradient id="paint79_linear_9606_778" x1="464.65" y1="404.482" x2="409.088" y2="266.235" gradientUnits="userSpaceOnUse">
<stop stop-color="#FFA434"/>
<stop offset="1" stop-color="#FFA434"/>
</linearGradient>
<linearGradient id="paint80_linear_9606_778" x1="374.076" y1="424.509" x2="318.514" y2="286.262" gradientUnits="userSpaceOnUse">
<stop stop-color="#FFA434"/>
<stop offset="1" stop-color="#FFA434"/>
</linearGradient>
<linearGradient id="paint81_linear_9606_778" x1="374.076" y1="424.509" x2="318.514" y2="286.261" gradientUnits="userSpaceOnUse">
<stop stop-color="#FFA434"/>
<stop offset="1" stop-color="#FFA434"/>
</linearGradient>
<linearGradient id="paint82_linear_9606_778" x1="396.719" y1="424.509" x2="341.157" y2="286.262" gradientUnits="userSpaceOnUse">
<stop stop-color="#FFA434"/>
<stop offset="1" stop-color="#FFA434"/>
</linearGradient>
<linearGradient id="paint83_linear_9606_778" x1="396.719" y1="424.509" x2="341.157" y2="286.261" gradientUnits="userSpaceOnUse">
<stop stop-color="#FFA434"/>
<stop offset="1" stop-color="#FFA434"/>
</linearGradient>
<linearGradient id="paint84_linear_9606_778" x1="419.362" y1="424.509" x2="363.8" y2="286.262" gradientUnits="userSpaceOnUse">
<stop stop-color="#FFA434"/>
<stop offset="1" stop-color="#FFA434"/>
</linearGradient>
<linearGradient id="paint85_linear_9606_778" x1="419.362" y1="424.509" x2="363.8" y2="286.261" gradientUnits="userSpaceOnUse">
<stop stop-color="#FFA434"/>
<stop offset="1" stop-color="#FFA434"/>
</linearGradient>
<linearGradient id="paint86_linear_9606_778" x1="442.004" y1="424.509" x2="386.443" y2="286.262" gradientUnits="userSpaceOnUse">
<stop stop-color="#FFA434"/>
<stop offset="1" stop-color="#FFA434"/>
</linearGradient>
<linearGradient id="paint87_linear_9606_778" x1="442.005" y1="424.509" x2="386.443" y2="286.261" gradientUnits="userSpaceOnUse">
<stop stop-color="#FFA434"/>
<stop offset="1" stop-color="#FFA434"/>
</linearGradient>
<linearGradient id="paint88_linear_9606_778" x1="464.65" y1="424.509" x2="409.089" y2="286.262" gradientUnits="userSpaceOnUse">
<stop stop-color="#FFA434"/>
<stop offset="1" stop-color="#FFA434"/>
</linearGradient>
<linearGradient id="paint89_linear_9606_778" x1="464.65" y1="424.509" x2="409.088" y2="286.261" gradientUnits="userSpaceOnUse">
<stop stop-color="#FFA434"/>
<stop offset="1" stop-color="#FFA434"/>
</linearGradient>
<linearGradient id="paint90_linear_9606_778" x1="374.076" y1="444.494" x2="318.514" y2="306.247" gradientUnits="userSpaceOnUse">
<stop stop-color="#FFA434"/>
<stop offset="1" stop-color="#FFA434"/>
</linearGradient>
<linearGradient id="paint91_linear_9606_778" x1="374.076" y1="444.494" x2="318.514" y2="306.246" gradientUnits="userSpaceOnUse">
<stop stop-color="#FFA434"/>
<stop offset="1" stop-color="#FFA434"/>
</linearGradient>
<linearGradient id="paint92_linear_9606_778" x1="396.719" y1="444.494" x2="341.157" y2="306.247" gradientUnits="userSpaceOnUse">
<stop stop-color="#FFA434"/>
<stop offset="1" stop-color="#FFA434"/>
</linearGradient>
<linearGradient id="paint93_linear_9606_778" x1="396.719" y1="444.494" x2="341.157" y2="306.246" gradientUnits="userSpaceOnUse">
<stop stop-color="#FFA434"/>
<stop offset="1" stop-color="#FFA434"/>
</linearGradient>
<linearGradient id="paint94_linear_9606_778" x1="419.362" y1="444.494" x2="363.8" y2="306.247" gradientUnits="userSpaceOnUse">
<stop stop-color="#FFA434"/>
<stop offset="1" stop-color="#FFA434"/>
</linearGradient>
<linearGradient id="paint95_linear_9606_778" x1="419.362" y1="444.494" x2="363.8" y2="306.246" gradientUnits="userSpaceOnUse">
<stop stop-color="#FFA434"/>
<stop offset="1" stop-color="#FFA434"/>
</linearGradient>
<linearGradient id="paint96_linear_9606_778" x1="442.004" y1="444.494" x2="386.443" y2="306.247" gradientUnits="userSpaceOnUse">
<stop stop-color="#FFA434"/>
<stop offset="1" stop-color="#FFA434"/>
</linearGradient>
<linearGradient id="paint97_linear_9606_778" x1="442.005" y1="444.494" x2="386.443" y2="306.246" gradientUnits="userSpaceOnUse">
<stop stop-color="#FFA434"/>
<stop offset="1" stop-color="#FFA434"/>
</linearGradient>
<linearGradient id="paint98_linear_9606_778" x1="464.65" y1="444.494" x2="409.089" y2="306.247" gradientUnits="userSpaceOnUse">
<stop stop-color="#FFA434"/>
<stop offset="1" stop-color="#FFA434"/>
</linearGradient>
<linearGradient id="paint99_linear_9606_778" x1="464.65" y1="444.494" x2="409.088" y2="306.246" gradientUnits="userSpaceOnUse">
<stop stop-color="#FFA434"/>
<stop offset="1" stop-color="#FFA434"/>
</linearGradient>
<linearGradient id="paint100_linear_9606_778" x1="1223.08" y1="729.471" x2="1167.51" y2="591.224" gradientUnits="userSpaceOnUse">
<stop stop-color="#FFA434"/>
<stop offset="1" stop-color="#FFA434"/>
</linearGradient>
<linearGradient id="paint101_linear_9606_778" x1="1223.08" y1="729.471" x2="1167.51" y2="591.224" gradientUnits="userSpaceOnUse">
<stop stop-color="#FFA434"/>
<stop offset="1" stop-color="#FFA434"/>
</linearGradient>
<linearGradient id="paint102_linear_9606_778" x1="1245.72" y1="729.471" x2="1190.16" y2="591.224" gradientUnits="userSpaceOnUse">
<stop stop-color="#FFA434"/>
<stop offset="1" stop-color="#FFA434"/>
</linearGradient>
<linearGradient id="paint103_linear_9606_778" x1="1245.72" y1="729.471" x2="1190.16" y2="591.224" gradientUnits="userSpaceOnUse">
<stop stop-color="#FFA434"/>
<stop offset="1" stop-color="#FFA434"/>
</linearGradient>
<linearGradient id="paint104_linear_9606_778" x1="1268.36" y1="729.471" x2="1212.8" y2="591.224" gradientUnits="userSpaceOnUse">
<stop stop-color="#FFA434"/>
<stop offset="1" stop-color="#FFA434"/>
</linearGradient>
<linearGradient id="paint105_linear_9606_778" x1="1268.36" y1="729.471" x2="1212.8" y2="591.224" gradientUnits="userSpaceOnUse">
<stop stop-color="#FFA434"/>
<stop offset="1" stop-color="#FFA434"/>
</linearGradient>
<linearGradient id="paint106_linear_9606_778" x1="1291" y1="729.471" x2="1235.44" y2="591.224" gradientUnits="userSpaceOnUse">
<stop stop-color="#FFA434"/>
<stop offset="1" stop-color="#FFA434"/>
</linearGradient>
<linearGradient id="paint107_linear_9606_778" x1="1291" y1="729.471" x2="1235.44" y2="591.224" gradientUnits="userSpaceOnUse">
<stop stop-color="#FFA434"/>
<stop offset="1" stop-color="#FFA434"/>
</linearGradient>
<linearGradient id="paint108_linear_9606_778" x1="1313.65" y1="729.471" x2="1258.09" y2="591.224" gradientUnits="userSpaceOnUse">
<stop stop-color="#FFA434"/>
<stop offset="1" stop-color="#FFA434"/>
</linearGradient>
<linearGradient id="paint109_linear_9606_778" x1="1313.65" y1="729.471" x2="1258.09" y2="591.224" gradientUnits="userSpaceOnUse">
<stop stop-color="#FFA434"/>
<stop offset="1" stop-color="#FFA434"/>
</linearGradient>
<linearGradient id="paint110_linear_9606_778" x1="1223.08" y1="749.496" x2="1167.51" y2="611.25" gradientUnits="userSpaceOnUse">
<stop stop-color="#FFA434"/>
<stop offset="1" stop-color="#FFA434"/>
</linearGradient>
<linearGradient id="paint111_linear_9606_778" x1="1223.08" y1="749.496" x2="1167.51" y2="611.25" gradientUnits="userSpaceOnUse">
<stop stop-color="#FFA434"/>
<stop offset="1" stop-color="#FFA434"/>
</linearGradient>
<linearGradient id="paint112_linear_9606_778" x1="1245.72" y1="749.496" x2="1190.16" y2="611.25" gradientUnits="userSpaceOnUse">
<stop stop-color="#FFA434"/>
<stop offset="1" stop-color="#FFA434"/>
</linearGradient>
<linearGradient id="paint113_linear_9606_778" x1="1245.72" y1="749.496" x2="1190.16" y2="611.25" gradientUnits="userSpaceOnUse">
<stop stop-color="#FFA434"/>
<stop offset="1" stop-color="#FFA434"/>
</linearGradient>
<linearGradient id="paint114_linear_9606_778" x1="1268.36" y1="749.496" x2="1212.8" y2="611.25" gradientUnits="userSpaceOnUse">
<stop stop-color="#FFA434"/>
<stop offset="1" stop-color="#FFA434"/>
</linearGradient>
<linearGradient id="paint115_linear_9606_778" x1="1268.36" y1="749.496" x2="1212.8" y2="611.25" gradientUnits="userSpaceOnUse">
<stop stop-color="#FFA434"/>
<stop offset="1" stop-color="#FFA434"/>
</linearGradient>
<linearGradient id="paint116_linear_9606_778" x1="1291" y1="749.496" x2="1235.44" y2="611.25" gradientUnits="userSpaceOnUse">
<stop stop-color="#FFA434"/>
<stop offset="1" stop-color="#FFA434"/>
</linearGradient>
<linearGradient id="paint117_linear_9606_778" x1="1291" y1="749.496" x2="1235.44" y2="611.25" gradientUnits="userSpaceOnUse">
<stop stop-color="#FFA434"/>
<stop offset="1" stop-color="#FFA434"/>
</linearGradient>
<linearGradient id="paint118_linear_9606_778" x1="1313.65" y1="749.496" x2="1258.09" y2="611.25" gradientUnits="userSpaceOnUse">
<stop stop-color="#FFA434"/>
<stop offset="1" stop-color="#FFA434"/>
</linearGradient>
<linearGradient id="paint119_linear_9606_778" x1="1313.65" y1="749.496" x2="1258.09" y2="611.25" gradientUnits="userSpaceOnUse">
<stop stop-color="#FFA434"/>
<stop offset="1" stop-color="#FFA434"/>
</linearGradient>
<linearGradient id="paint120_linear_9606_778" x1="1223.08" y1="769.482" x2="1167.51" y2="631.235" gradientUnits="userSpaceOnUse">
<stop stop-color="#FFA434"/>
<stop offset="1" stop-color="#FFA434"/>
</linearGradient>
<linearGradient id="paint121_linear_9606_778" x1="1223.08" y1="769.482" x2="1167.51" y2="631.235" gradientUnits="userSpaceOnUse">
<stop stop-color="#FFA434"/>
<stop offset="1" stop-color="#FFA434"/>
</linearGradient>
<linearGradient id="paint122_linear_9606_778" x1="1245.72" y1="769.482" x2="1190.16" y2="631.235" gradientUnits="userSpaceOnUse">
<stop stop-color="#FFA434"/>
<stop offset="1" stop-color="#FFA434"/>
</linearGradient>
<linearGradient id="paint123_linear_9606_778" x1="1245.72" y1="769.482" x2="1190.16" y2="631.235" gradientUnits="userSpaceOnUse">
<stop stop-color="#FFA434"/>
<stop offset="1" stop-color="#FFA434"/>
</linearGradient>
<linearGradient id="paint124_linear_9606_778" x1="1268.36" y1="769.482" x2="1212.8" y2="631.235" gradientUnits="userSpaceOnUse">
<stop stop-color="#FFA434"/>
<stop offset="1" stop-color="#FFA434"/>
</linearGradient>
<linearGradient id="paint125_linear_9606_778" x1="1268.36" y1="769.482" x2="1212.8" y2="631.235" gradientUnits="userSpaceOnUse">
<stop stop-color="#FFA434"/>
<stop offset="1" stop-color="#FFA434"/>
</linearGradient>
<linearGradient id="paint126_linear_9606_778" x1="1291" y1="769.482" x2="1235.44" y2="631.235" gradientUnits="userSpaceOnUse">
<stop stop-color="#FFA434"/>
<stop offset="1" stop-color="#FFA434"/>
</linearGradient>
<linearGradient id="paint127_linear_9606_778" x1="1291" y1="769.482" x2="1235.44" y2="631.235" gradientUnits="userSpaceOnUse">
<stop stop-color="#FFA434"/>
<stop offset="1" stop-color="#FFA434"/>
</linearGradient>
<linearGradient id="paint128_linear_9606_778" x1="1313.65" y1="769.482" x2="1258.09" y2="631.235" gradientUnits="userSpaceOnUse">
<stop stop-color="#FFA434"/>
<stop offset="1" stop-color="#FFA434"/>
</linearGradient>
<linearGradient id="paint129_linear_9606_778" x1="1313.65" y1="769.482" x2="1258.09" y2="631.235" gradientUnits="userSpaceOnUse">
<stop stop-color="#FFA434"/>
<stop offset="1" stop-color="#FFA434"/>
</linearGradient>
<linearGradient id="paint130_linear_9606_778" x1="1223.08" y1="789.509" x2="1167.51" y2="651.262" gradientUnits="userSpaceOnUse">
<stop stop-color="#FFA434"/>
<stop offset="1" stop-color="#FFA434"/>
</linearGradient>
<linearGradient id="paint131_linear_9606_778" x1="1223.08" y1="789.509" x2="1167.51" y2="651.261" gradientUnits="userSpaceOnUse">
<stop stop-color="#FFA434"/>
<stop offset="1" stop-color="#FFA434"/>
</linearGradient>
<linearGradient id="paint132_linear_9606_778" x1="1245.72" y1="789.509" x2="1190.16" y2="651.262" gradientUnits="userSpaceOnUse">
<stop stop-color="#FFA434"/>
<stop offset="1" stop-color="#FFA434"/>
</linearGradient>
<linearGradient id="paint133_linear_9606_778" x1="1245.72" y1="789.509" x2="1190.16" y2="651.261" gradientUnits="userSpaceOnUse">
<stop stop-color="#FFA434"/>
<stop offset="1" stop-color="#FFA434"/>
</linearGradient>
<linearGradient id="paint134_linear_9606_778" x1="1268.36" y1="789.509" x2="1212.8" y2="651.262" gradientUnits="userSpaceOnUse">
<stop stop-color="#FFA434"/>
<stop offset="1" stop-color="#FFA434"/>
</linearGradient>
<linearGradient id="paint135_linear_9606_778" x1="1268.36" y1="789.509" x2="1212.8" y2="651.261" gradientUnits="userSpaceOnUse">
<stop stop-color="#FFA434"/>
<stop offset="1" stop-color="#FFA434"/>
</linearGradient>
<linearGradient id="paint136_linear_9606_778" x1="1291" y1="789.509" x2="1235.44" y2="651.262" gradientUnits="userSpaceOnUse">
<stop stop-color="#FFA434"/>
<stop offset="1" stop-color="#FFA434"/>
</linearGradient>
<linearGradient id="paint137_linear_9606_778" x1="1291" y1="789.509" x2="1235.44" y2="651.261" gradientUnits="userSpaceOnUse">
<stop stop-color="#FFA434"/>
<stop offset="1" stop-color="#FFA434"/>
</linearGradient>
<linearGradient id="paint138_linear_9606_778" x1="1313.65" y1="789.509" x2="1258.09" y2="651.262" gradientUnits="userSpaceOnUse">
<stop stop-color="#FFA434"/>
<stop offset="1" stop-color="#FFA434"/>
</linearGradient>
<linearGradient id="paint139_linear_9606_778" x1="1313.65" y1="789.509" x2="1258.09" y2="651.261" gradientUnits="userSpaceOnUse">
<stop stop-color="#FFA434"/>
<stop offset="1" stop-color="#FFA434"/>
</linearGradient>
<linearGradient id="paint140_linear_9606_778" x1="1223.08" y1="809.494" x2="1167.51" y2="671.247" gradientUnits="userSpaceOnUse">
<stop stop-color="#FFA434"/>
<stop offset="1" stop-color="#FFA434"/>
</linearGradient>
<linearGradient id="paint141_linear_9606_778" x1="1223.08" y1="809.494" x2="1167.51" y2="671.246" gradientUnits="userSpaceOnUse">
<stop stop-color="#FFA434"/>
<stop offset="1" stop-color="#FFA434"/>
</linearGradient>
<linearGradient id="paint142_linear_9606_778" x1="1245.72" y1="809.494" x2="1190.16" y2="671.247" gradientUnits="userSpaceOnUse">
<stop stop-color="#FFA434"/>
<stop offset="1" stop-color="#FFA434"/>
</linearGradient>
<linearGradient id="paint143_linear_9606_778" x1="1245.72" y1="809.494" x2="1190.16" y2="671.246" gradientUnits="userSpaceOnUse">
<stop stop-color="#FFA434"/>
<stop offset="1" stop-color="#FFA434"/>
</linearGradient>
<linearGradient id="paint144_linear_9606_778" x1="1268.36" y1="809.494" x2="1212.8" y2="671.247" gradientUnits="userSpaceOnUse">
<stop stop-color="#FFA434"/>
<stop offset="1" stop-color="#FFA434"/>
</linearGradient>
<linearGradient id="paint145_linear_9606_778" x1="1268.36" y1="809.494" x2="1212.8" y2="671.246" gradientUnits="userSpaceOnUse">
<stop stop-color="#FFA434"/>
<stop offset="1" stop-color="#FFA434"/>
</linearGradient>
<linearGradient id="paint146_linear_9606_778" x1="1291" y1="809.494" x2="1235.44" y2="671.247" gradientUnits="userSpaceOnUse">
<stop stop-color="#FFA434"/>
<stop offset="1" stop-color="#FFA434"/>
</linearGradient>
<linearGradient id="paint147_linear_9606_778" x1="1291" y1="809.494" x2="1235.44" y2="671.246" gradientUnits="userSpaceOnUse">
<stop stop-color="#FFA434"/>
<stop offset="1" stop-color="#FFA434"/>
</linearGradient>
<linearGradient id="paint148_linear_9606_778" x1="1313.65" y1="809.494" x2="1258.09" y2="671.247" gradientUnits="userSpaceOnUse">
<stop stop-color="#FFA434"/>
<stop offset="1" stop-color="#FFA434"/>
</linearGradient>
<linearGradient id="paint149_linear_9606_778" x1="1313.65" y1="809.494" x2="1258.09" y2="671.246" gradientUnits="userSpaceOnUse">
<stop stop-color="#FFA434"/>
<stop offset="1" stop-color="#FFA434"/>
</linearGradient>
<clipPath id="clip0_9606_778">
<rect width="1280" height="720" fill="white"/>
</clipPath>
</defs>
</svg>
